<svg xmlns="http://www.w3.org/2000/svg" viewBox="66 211.3 725 175.4" enable-background="new 66 211.3 725 175.4"><g fill="#fff"><path d="M71.3 218.9H101v161.9H71.3V218.9zM146.2 268.1h26.9V291h.4c5.9-15.3 21.2-24.8 36.8-24.8h1.9v26.7H207c-20.1 0-32.4 8.5-32.4 30.3V381h-28.4V268.1zM243.7 268.1h26.9V291h.4c5.9-15.3 21.2-24.8 36.8-24.8h1.9v26.7h-5.3c-20.1 0-32.4 8.5-32.4 30.3V381h-28.4l.1-112.9zM336 300.7c.9-21.6 18-35.2 46.6-35.2 33.4 0 46.4 13.8 46.4 43.8v41.5c0 7.2 2.1 10 9.5 10v20.5h-8c-16.8 0-23.9-4.2-26.9-17.1h-.6c-6.6 11.6-18.4 18.2-34.7 18.2-23.1 0-37.3-12.3-37.3-33 0-12.9 5.5-22.4 16.9-28.4 11.9-6.1 29-7.6 53.3-8.7v-5.7c0-15.3-5.9-22.3-18.9-22.3-13.1 0-18.6 7.4-19 16.3l-27.3.1zm65.4 31.3v-3.2c-19.9 1.1-30.5 2.8-36.4 7-4 2.8-5.7 7-5.7 12.3 0 9.3 6.1 15.3 16.5 15.3 12.4-.1 25.6-9.4 25.6-31.4zM573.5 380.9h-27.3v-17.4h-.6c-5.7 10.4-16.8 20.1-34.3 20.1-27.8 0-47.2-17.4-47.2-58 0-39.4 20.8-60.1 49.1-60.1 15.3 0 26.3 7.9 31.3 18.2h.4V214h28.6v166.9zm-28.2-61.2c0-21.2-10.1-33.9-25.6-33.9-17.1 0-26.7 13.5-26.7 38.9 0 23.7 7.2 38.9 25.6 38.9 16.9 0 26.7-13.4 26.7-31.1v-12.8zM616.5 219.6h29v26.9h-29v-26.9zm.2 48.5h28.6V381h-28.6V268.1zM735 383.6c-35.5 0-54-23.7-54-59.1 0-34.3 19.7-59.3 53.8-59.3 37 0 52.1 25.4 52.1 56.9v9.1h-77.1c1.3 21.4 9.5 32.6 26.3 32.6 15.3 0 19.7-8 21.6-14.8h27.9c-3.6 21.7-21.6 34.6-50.6 34.6zm22.9-71.3c-1.1-16.9-7.6-28.4-23.3-28.4-14.6 0-22.6 11.2-24.5 29.7h47.8v-1.3zM734 214.1h29.2l-18.6 36H723l11-36z"/></g></svg>