<?xml version="1.0" standalone="no"?>
<!DOCTYPE svg PUBLIC "-//W3C//DTD SVG 1.1//EN" "http://www.w3.org/Graphics/SVG/1.1/DTD/svg11.dtd" >
<svg xmlns="http://www.w3.org/2000/svg">
<metadata></metadata>
<defs>
<font id="arnnormal" horiz-adv-x="1081" >
<font-face units-per-em="2048" ascent="1540" descent="-508" />
<missing-glyph horiz-adv-x="483" />
<glyph unicode="&#xfb03;" horiz-adv-x="1892" d="M57 831l33 103h117v16q0 216 107.5 329.5t295.5 113.5q79 0 132 -36t53 -104q0 -50 -34 -78t-75 -28q-54 0 -93.5 45.5t-17.5 134.5q-61 0 -108 -66.5t-47 -211.5v-115h426v43q0 214 136 343.5t359 129.5q89 0 166.5 -21.5t129 -66.5t51.5 -105q0 -56 -30.5 -88 t-80.5 -32q-42 0 -75 26.5t-40.5 75t33.5 115.5q-15 13 -57 25t-84 12q-144 0 -219.5 -98t-75.5 -271v-88h338l235 49h66v-862q0 -24 10.5 -32t50.5 -19l76 -17v-53h-481v53l69 17q30 7 46 18t16 33v649v11v10v8t-1 7.5t-2.5 6.5t-3.5 5.5t-5.5 4t-8 3.5t-10.5 2.5t-14 2.5 h-381v-704q0 -22 15.5 -32.5t49.5 -18.5l117 -23v-53h-528v53l67 17q28 7 38 10t19 11.5t9 23.5v716h-426v-704q0 -23 11.5 -31.5t53.5 -19.5l117 -23v-53h-528v53l67 17q36 8 51 18t15 33v710h-150z" />
<glyph unicode="&#xfb04;" horiz-adv-x="1892" d="M57 831l33 103h117v16q0 216 107.5 329.5t295.5 113.5q79 0 132 -36t53 -104q0 -50 -34 -78t-75 -28q-54 0 -93.5 45.5t-17.5 134.5q-61 0 -108 -66.5t-47 -211.5v-115h426v43q0 214 125.5 343.5t335.5 129.5q122 0 229 -35l102 35h76q-16 -147 -16 -295v-1034 q0 -24 12 -33.5t49 -17.5l76 -17v-53h-481v53l69 17q37 8 49.5 17.5t12.5 33.5v1059q8 211 -178 211q-122 0 -185 -97.5t-63 -271.5v-88h231v-103h-231v-704q0 -22 15.5 -32.5t49.5 -18.5l117 -23v-53h-528v53l67 17q28 7 38 10t19 11.5t9 23.5v716h-426v-704 q0 -23 11.5 -31.5t53.5 -19.5l117 -23v-53h-528v53l67 17q36 8 51 18t15 33v710h-150z" />
<glyph horiz-adv-x="0" />
<glyph horiz-adv-x="682" />
<glyph unicode=" "  horiz-adv-x="483" />
<glyph unicode="&#x09;" horiz-adv-x="483" />
<glyph unicode="&#xa0;" horiz-adv-x="483" />
<glyph unicode="!" horiz-adv-x="557" d="M133 119q0 63 40 103t106 40q65 0 105 -40.5t40 -102.5q0 -64 -40 -104t-105 -40t-105.5 41t-40.5 103zM139 1253q50 50 140 50q89 0 139 -50q-48 -257 -75.5 -510.5t-27.5 -355.5h-73q0 102 -27.5 355.5t-75.5 510.5z" />
<glyph unicode="&#x22;" horiz-adv-x="811" d="M115 1253q41 50 121 50q79 0 120 -50q-30 -68 -56.5 -173t-35.5 -171h-57q-5 59 -33 167t-59 177zM455 1253q41 50 120 50q80 0 121 -50q-30 -68 -56.5 -173t-35.5 -171h-57q-5 59 -33 167t-59 177z" />
<glyph unicode="#" d="M0 246l18 100h179l120 576h-198l18 100h201l74 348l114 -20l-69 -328h311l74 348l114 -20l-69 -328h196l-18 -100h-199l-121 -576h220l-19 -100h-223l-74 -357l-114 21l69 336h-309l-74 -357l-115 21l70 336h-176zM315 346h312l121 576h-312z" />
<glyph unicode="$" d="M106 442h60q36 -195 80 -282q39 -49 104 -83t139 -34h11v504l-131 57q-59 28 -99.5 54.5t-76.5 64.5t-54 90t-18 119q0 144 114.5 232t290.5 96v165h64v-163q146 -8 260 -64l47 55h41l10 -403h-61q-12 63 -36.5 134t-49.5 112q-82 90 -211 98v-440l110 -49 q66 -29 112.5 -58.5t90 -71t66 -97.5t22.5 -126q0 -160 -116 -257t-312 -115v-168h-63v163h-17q-169 0 -295 62l-32 -62h-45q6 71 6 212t-11 255zM340 993q0 -76 41 -120t129 -85l16 -8v410q-83 -11 -134.5 -61t-51.5 -136zM563 49q90 19 141.5 80.5t51.5 149.5 q0 84 -50.5 140t-142.5 99v-469z" />
<glyph unicode="%" horiz-adv-x="1867" d="M106 913q0 173 91.5 280t242.5 107q154 0 245 -105.5t91 -279.5q0 -173 -91.5 -283t-244.5 -110q-152 0 -243 108t-91 283zM289 915q0 -76 6.5 -132t22 -104t46.5 -72.5t76 -24.5t76 24.5t47 72t22.5 103.5t6.5 131q0 76 -6.5 131.5t-22.5 102t-47 70.5t-76 24t-76 -24 t-46.5 -70.5t-22 -101t-6.5 -130.5zM475 -25l776 1328h133l-776 -1328h-133zM1092 367q0 173 91 280t244 107q154 0 244 -105t90 -280q0 -173 -91 -283.5t-243 -110.5q-154 0 -244.5 108.5t-90.5 283.5zM1276 369q0 -77 6.5 -132.5t22 -104t46.5 -73t76 -24.5t76 25t47 72.5 t22.5 103t6.5 131.5t-6.5 131.5t-22.5 102t-47 70t-76 23.5t-76 -23.5t-46.5 -70t-22 -101t-6.5 -130.5z" />
<glyph unicode="&#x26;" horiz-adv-x="1220" d="M51 326q0 225 281 336l-86 100q-99 115 -99 237q0 76 33 136.5t86 96t113.5 53.5t122.5 18q155 0 236 -74.5t81 -186.5q0 -61 -23.5 -113t-67 -92.5t-86.5 -68.5t-101 -57l327 -377q58 119 58 274q0 18 -9 24t-49 17l-65 17v53h358v-53l-106 -25q-18 -5 -25.5 -14.5 t-7.5 -34.5q0 -168 -92 -330l110 -127q67 -75 174 -88v-47q-64 -25 -141 -25q-82 0 -142.5 30.5t-113.5 92.5l-10 11q-147 -134 -338 -134q-199 0 -308.5 96t-109.5 255zM252 369q0 -124 79 -193.5t206 -69.5q121 0 211 72l-367 426q-129 -89 -129 -235zM332 1061 q0 -112 94 -217l70 -82q153 91 153 278q0 195 -155 195q-76 0 -119 -49t-43 -125z" />
<glyph unicode="'" horiz-adv-x="475" d="M117 1253q41 50 121 50q79 0 120 -50q-30 -68 -56.5 -173t-35.5 -171h-57q-5 59 -33 167t-59 177z" />
<glyph unicode="(" horiz-adv-x="661" d="M115 328v348q0 206 44.5 372.5t118.5 270t166.5 158.5t192.5 55v-62q-156 0 -252 -205t-96 -589v-348q0 -368 96.5 -575.5t251.5 -207.5v-61q-79 0 -154.5 33.5t-142.5 103.5t-117 168.5t-79 237.5t-29 301z" />
<glyph unicode=")" horiz-adv-x="661" d="M25 -455q156 0 251 207t95 576v348q0 385 -94.5 589.5t-251.5 204.5v62q100 0 192.5 -55t166.5 -158.5t118.5 -270t44.5 -372.5v-348q0 -162 -29 -301t-79 -237.5t-117 -168.5t-142.5 -103.5t-154.5 -33.5v61z" />
<glyph unicode="*" horiz-adv-x="958" d="M82 1016l8 33l287 -2l-49 280l32 16l142 -253l219 188l33 -25l-148 -243l271 -101l-9 -32l-286 -7l49 -280l-33 -8l-141 245l-219 -188l-33 25l147 249z" />
<glyph unicode="+" d="M74 598v107h409v458h115v-458h410v-107h-410v-475h-115v475h-409z" />
<glyph unicode="," horiz-adv-x="557" d="M125 -377q64 59 113 153t49 199q-66 0 -107 40.5t-41 103.5q0 65 41 104t105 39q70 0 110.5 -46.5t40.5 -141.5q0 -83 -20.5 -161t-53 -134t-64.5 -94.5t-62 -61.5h-111z" />
<glyph unicode="-" horiz-adv-x="581" d="M57 463v151h467v-151h-467z" />
<glyph unicode="." horiz-adv-x="557" d="M133 119q0 63 40 103t106 40q65 0 105 -40.5t40 -102.5q0 -64 -40 -104t-105 -40t-105.5 41t-40.5 103z" />
<glyph unicode="/" horiz-adv-x="630" d="M37 -156l450 1565h107l-451 -1565h-106z" />
<glyph unicode="0" d="M88 614q0 189 53.5 335t158.5 229.5t247 83.5t244 -84t152 -228.5t50 -335.5q0 -187 -53 -331t-157.5 -226t-247.5 -82q-142 0 -244 82.5t-152.5 225.5t-50.5 331zM322 614q0 -125 9 -219.5t32 -178.5t67.5 -128.5t110.5 -44.5t110.5 44.5t67.5 128.5t32 178.5t9 219.5 q0 99 -5 179t-19.5 157t-38.5 129t-63.5 83.5t-92.5 31.5t-92.5 -31.5t-63.5 -83.5t-38.5 -129t-19.5 -157t-5 -179z" />
<glyph unicode="1" d="M117 991q76 31 246.5 126t236.5 145h76v-1102q0 -38 11.5 -54t45.5 -20l205 -25v-61h-762v61l221 33q37 6 47.5 18.5t10.5 47.5v880h-17l-297 -108z" />
<glyph unicode="2" d="M84 0v57l311 336q7 7 38.5 42t44 49t41.5 50t42.5 59t34.5 61t31 70t18 73.5t8 83.5q0 124 -57 189t-162 65q-114 0 -186 -69.5t-72 -193.5q0 -41 8 -65h-59q-8 31 -8 82q0 71 23.5 136t69 119t121.5 86t171 32q176 0 276.5 -91t100.5 -266q0 -45 -12 -90t-29 -82 t-46.5 -78.5t-54 -70.5t-63.5 -66.5t-62 -57.5t-62.5 -54t-53.5 -46l-226 -202h488q23 0 37 10.5t28 30.5l119 184h49q-68 -251 -90 -383h-817z" />
<glyph unicode="3" d="M82 182q0 45 28 74t72 29q50 0 75.5 -32.5t37.5 -94.5l14 -84q20 -17 55 -28t68 -11q121 0 193.5 79t72.5 230q0 115 -74.5 181.5t-185.5 66.5q-68 0 -110 -25v80q113 12 180 45q158 79 158 258q0 97 -61 147t-154 50q-103 0 -171.5 -60.5t-68.5 -177.5h-51 q0 157 92.5 255t259.5 98q163 0 255.5 -73t92.5 -208q0 -109 -73.5 -189t-188.5 -114q46 -8 88 -21t86.5 -39t76.5 -61t52.5 -88.5t20.5 -118.5q0 -177 -135.5 -276t-360.5 -99q-84 0 -160 21.5t-130 70t-54 115.5z" />
<glyph unicode="4" d="M53 319v60l531 825q43 5 100.5 23t77.5 35h45v-844h182v-99h-182v-192q0 -21 5.5 -29t27.5 -12l106 -25v-61h-534v61l147 25q21 5 27 11.5t6 29.5v192h-539zM168 418h424v661z" />
<glyph unicode="5" d="M115 176q0 50 27 76.5t71 26.5q49 0 73.5 -33t37.5 -90l16 -88q52 -33 113 -33q126 0 193 97.5t67 244.5q0 148 -74.5 225.5t-200.5 77.5q-111 0 -207 -74h-34q41 282 41 631h665l-43 -184h-555q0 -205 -26 -348q35 25 96.5 43t132.5 18q213 0 320.5 -101.5t107.5 -273.5 q0 -185 -135.5 -300.5t-347.5 -115.5q-54 0 -108.5 10t-108 31.5t-87.5 63t-34 96.5z" />
<glyph unicode="6" d="M98 543q0 175 48 314.5t131 226.5t189 132.5t228 45.5q79 0 139.5 -22t92.5 -50v-60q-65 44 -191 44q-171 0 -277.5 -137t-131.5 -375q52 57 124.5 90.5t155.5 33.5q171 0 278 -100t107 -283q0 -186 -121.5 -307t-322.5 -121q-68 0 -129.5 16t-121 57t-102.5 103.5 t-69.5 163t-26.5 228.5zM319 526q0 -75 6 -140.5t22.5 -130.5t42 -111t68 -74.5t97.5 -28.5q104 0 163.5 96.5t59.5 243.5q0 141 -62 221t-171 80q-132 0 -226 -104v-52z" />
<glyph unicode="7" d="M86 1053l45 184h860v-33l-581 -1204h-189l619 1053h-754z" />
<glyph unicode="8" d="M117 297q0 219 278 307q-32 16 -58.5 32t-61 46t-57.5 63.5t-39.5 84.5t-16.5 110q0 95 56.5 170t147 113.5t195.5 38.5q103 0 181 -26t122 -70.5t65 -97.5t21 -114t-24.5 -112t-66.5 -86t-84 -57.5t-91 -39.5q281 -110 281 -344q0 -73 -26.5 -132.5t-69 -97.5 t-100.5 -63.5t-117 -36t-122 -10.5q-190 0 -301.5 83t-111.5 239zM311 305q0 -122 60 -192t159 -70q102 0 162 64t60 186q0 28 -5.5 53t-11.5 44.5t-21.5 38.5t-25.5 31.5t-33.5 27.5t-34.5 22.5t-40.5 20.5t-40.5 17.5t-44 17.5t-42 16q-70 -49 -106 -112t-36 -165z M367 967q0 -55 17 -99t40 -72t61.5 -52t67 -35.5t72.5 -26.5q71 50 106 112t35 152q0 110 -52.5 179t-152.5 69q-85 0 -139.5 -57.5t-54.5 -169.5z" />
<glyph unicode="9" d="M90 850q0 188 118 300t312 112q218 0 340.5 -149t122.5 -419q0 -210 -74 -371.5t-221.5 -254.5t-349.5 -93q-129 0 -207 56v51q68 -25 174 -25q192 0 308 134t141 362q-109 -109 -269 -109q-169 0 -282 110t-113 296zM303 864q0 -142 65.5 -228.5t190.5 -86.5 q113 0 201 84q2 18 2 59q0 73 -5.5 137.5t-21.5 134t-42 118.5t-71 80.5t-104 31.5q-102 0 -158.5 -89.5t-56.5 -240.5z" />
<glyph unicode=":" horiz-adv-x="557" d="M133 119q0 63 40 103t106 40q65 0 105 -40.5t40 -102.5q0 -64 -40 -104t-105 -40t-105.5 41t-40.5 103zM133 735q0 63 40.5 103.5t105.5 40.5t105 -41t40 -103q0 -63 -40 -103t-105 -40t-105.5 40.5t-40.5 102.5z" />
<glyph unicode=";" horiz-adv-x="557" d="M125 -377q64 59 113 153t49 199q-66 0 -107 40.5t-41 103.5q0 65 41 104t105 39q70 0 110.5 -46.5t40.5 -141.5q0 -83 -20.5 -161t-53 -134t-64.5 -94.5t-62 -61.5h-111zM133 735q0 63 40.5 103.5t105.5 40.5t105 -41t40 -103q0 -63 -40 -103t-105 -40t-105.5 40.5 t-40.5 102.5z" />
<glyph unicode="&#x3c;" d="M49 651l916 441l45 -97l-727 -344l727 -344l-45 -96z" />
<glyph unicode="=" d="M74 385v107h934v-107h-934zM74 786v107h934v-107h-934z" />
<glyph unicode="&#x3e;" d="M66 307l727 344l-727 344l45 97l915 -441l-915 -440z" />
<glyph unicode="?" horiz-adv-x="942" d="M113 1044q0 68 60.5 129t149.5 95.5t175 34.5q154 0 246 -74t92 -213q0 -54 -14.5 -101t-35.5 -80.5t-59.5 -69.5t-70 -59t-83.5 -57l-47 -31q-50 -33 -72 -61.5t-22 -67.5q0 -44 25 -92h-146q0 39 7.5 72.5t15.5 54t28.5 44.5t29 32.5t36.5 30.5t33 26l35 29 q80 67 114.5 133.5t34.5 179.5q0 106 -64 162t-163 56q-82 0 -139 -43q26 -72 26 -105q0 -48 -26.5 -82.5t-77.5 -34.5q-41 0 -64.5 24.5t-23.5 67.5zM242 119q0 63 40 103t105 40t105 -40.5t40 -102.5q0 -64 -40 -104t-105 -40t-105 41t-40 103z" />
<glyph unicode="@" horiz-adv-x="1933" d="M92 473q0 155 48.5 289.5t133 232.5t197 168t241.5 105t265 35q145 0 274.5 -32t237.5 -97.5t186.5 -159.5t122 -225t43.5 -287q0 -166 -55.5 -298t-162 -209t-245.5 -77q-73 0 -125.5 17.5t-81 49.5t-42.5 64.5t-21 73.5q-45 -65 -120 -106.5t-173 -41.5 q-128 0 -199 64.5t-71 181.5q0 43 14 78.5t43 63t60.5 48t79.5 39t85.5 30t92.5 26.5l188 47v111q0 227 -207 227q-37 0 -80.5 -11t-72.5 -28l16 -33q27 -48 27 -92q0 -52 -30 -82.5t-83 -30.5q-47 0 -73.5 30.5t-26.5 80.5q0 46 34.5 89t81.5 69l47 28q126 72 238 72 q167 0 250.5 -71t83.5 -224v-463q0 -129 24.5 -179t102.5 -50q84 0 148.5 67t98 181.5t33.5 257.5q0 329 -202 526t-541 197q-169 0 -311.5 -58t-239.5 -158.5t-151 -238.5t-54 -297q0 -225 92.5 -399.5t261 -270.5t386.5 -96q114 0 227 26t178 64l25 -45 q-86 -56 -200.5 -89.5t-229.5 -33.5q-256 0 -453 103t-306.5 295t-109.5 446zM743 248q0 -75 45 -113.5t121 -38.5q61 0 113.5 25.5t85.5 62.5v301l-143 -39q-38 -13 -62.5 -22t-58 -27t-53 -37t-34 -48t-14.5 -64z" />
<glyph unicode="A" horiz-adv-x="1236" d="M-25 0v61l84 23q44 11 62 66l448 1153h125l434 -1172q13 -40 66 -53l55 -17v-61h-516v61l103 23q29 6 36 21.5t-2 39.5l-82 224h-458l-78 -224q-10 -29 -3.5 -42.5t30.5 -18.5l102 -23v-61h-406zM362 461h394l-199 547z" />
<glyph unicode="B" horiz-adv-x="1277" d="M68 0v61l114 25q37 8 47.5 16.5t10.5 32.5v1000q0 24 -10.5 32.5t-47.5 16.5l-114 24v62h622q212 0 328.5 -75.5t116.5 -225.5q0 -117 -77 -193.5t-192 -109.5q71 -13 128.5 -37t104.5 -61.5t73 -93.5t26 -126q0 -94 -40.5 -164t-109.5 -109t-148 -57t-169 -18h-663z M481 92q62 -16 137 -16h35q136 0 216.5 68t80.5 204q0 131 -93.5 197.5t-254.5 66.5h-121v-520zM481 688h135q141 0 214 67.5t73 196.5q0 130 -68 187t-202 57h-21q-81 0 -131 -16v-492z" />
<glyph unicode="C" horiz-adv-x="1359" d="M76 662q0 198 94.5 345t256.5 221.5t368 74.5q187 0 342 -68l41 51h43l20 -436h-57q-14 75 -40 158t-54 127q-126 98 -289 98q-97 0 -174.5 -30.5t-129.5 -83.5t-86.5 -126.5t-49.5 -155.5t-15 -175q0 -282 119.5 -446.5t312.5 -164.5q182 0 273 80q33 40 73 129.5 t68 169.5h57l-71 -383q-70 -29 -177.5 -50.5t-224.5 -21.5q-330 0 -515 183t-185 504z" />
<glyph unicode="D" horiz-adv-x="1474" d="M70 0v61l114 25q37 8 47.5 16.5t10.5 32.5v1000q0 24 -10.5 32.5t-47.5 16.5l-114 24v62h628q212 0 371 -71.5t248.5 -213.5t89.5 -340q0 -137 -47.5 -255.5t-132.5 -204.5t-209.5 -135.5t-272.5 -49.5h-675zM483 92q102 -16 166 -16h43q210 0 333.5 151t123.5 412 q0 119 -24.5 215.5t-78.5 175.5t-149.5 122.5t-226.5 43.5h-45q-64 0 -142 -16v-1088z" />
<glyph unicode="E" horiz-adv-x="1236" d="M68 0v61l114 25q37 8 47.5 16.5t10.5 32.5v1000q0 23 -10.5 32.5t-47.5 16.5l-114 24v62h845q98 0 164 16l39 -401h-59q-48 170 -103 252q-36 29 -120 43t-170 14h-25q-76 0 -158 -16v-465h230q42 24 76 81t42 109h43v-481h-43q-14 59 -45.5 114.5t-72.5 84.5h-230v-529 q114 -16 183 -16h43q178 0 256 55q31 34 70 118t57 152h59l-55 -401h-1026z" />
<glyph unicode="F" horiz-adv-x="1138" d="M68 0v61l114 25q37 8 47.5 16.5t10.5 32.5v1000q0 24 -10.5 32.5t-47.5 16.5l-114 24v62h827q98 0 164 16l39 -401h-60q-49 173 -102 252q-79 57 -272 57h-31q-70 0 -152 -16v-488h236q42 24 76.5 81.5t42.5 109.5h43v-498h-43q-15 63 -47 124.5t-72 90.5h-236v-455 q0 -26 14 -36.5t66 -20.5l135 -25v-61h-628z" />
<glyph unicode="G" horiz-adv-x="1433" d="M70 670q0 189 94 333t263 222t388 78q97 0 190 -19.5t154 -46.5l41 49h43l23 -436h-58q-12 69 -45 154t-67 135q-45 38 -119 66t-168 28q-218 0 -343.5 -153.5t-125.5 -407.5q0 -288 122.5 -454.5t311.5 -166.5q75 0 143 20t105 52v354q0 24 -13 35.5t-44 19.5l-127 33 v62h512v-54l-41 -16q-31 -13 -43.5 -27.5t-12.5 -42.5v-360l17 -43q-79 -44 -217.5 -76.5t-278.5 -32.5q-326 0 -515 185t-189 510z" />
<glyph unicode="H" horiz-adv-x="1605" d="M68 0v61l114 25q37 8 47.5 16.5t10.5 32.5v1000q0 24 -10.5 32.5t-47.5 16.5l-114 24v62h571v-62l-100 -24q-37 -8 -47.5 -16.5t-10.5 -32.5v-428h643v428q0 25 -10 33t-47 16l-100 24v62h571v-62l-115 -24q-37 -8 -47 -16t-10 -33v-1000q0 -25 10 -33t47 -16l115 -25 v-61h-571v61l100 25q37 8 47 16t10 33v467h-643v-467q0 -24 10.5 -32.5t47.5 -16.5l100 -25v-61h-571z" />
<glyph unicode="I" horiz-adv-x="720" d="M68 0v61l114 25q37 8 47.5 16.5t10.5 32.5v1000q0 24 -10.5 32.5t-47.5 16.5l-114 24v62h585v-62l-114 -24q-37 -8 -47.5 -16.5t-10.5 -32.5v-1000q0 -24 10.5 -32.5t47.5 -16.5l114 -25v-61h-585z" />
<glyph unicode="J" horiz-adv-x="720" d="M-131 -274q0 51 33.5 83.5t83.5 32.5q54 0 86 -32t32 -82q0 -42 -16 -78q32 4 57 18.5t49.5 47.5t38 96.5t13.5 154.5v1170q0 38 -70 47l-108 18v68h585v-68l-96 -18q-39 -7 -54.5 -16t-15.5 -31v-1112q0 -94 -24 -168.5t-65 -124t-97 -82t-117.5 -46.5t-130.5 -14 q-81 0 -132.5 34t-51.5 102z" />
<glyph unicode="K" horiz-adv-x="1359" d="M68 0v61l114 25q37 8 47.5 16.5t10.5 32.5v1000q0 24 -10.5 32.5t-47.5 16.5l-114 24v62h585v-62l-114 -24q-37 -8 -47.5 -16.5t-10.5 -32.5v-1000q0 -24 10.5 -32.5t47.5 -16.5l114 -25v-61h-585zM498 645v17q15 5 65 40l408 426q23 23 15.5 40.5t-40.5 23.5l-80 16v62 h453v-64l-66 -16q-74 -19 -137 -74l-385 -362l291 -418q69 -98 130.5 -161t102.5 -85l99 -29v-61h-346q-94 75 -224 264l-247 363q-7 12 -39 18z" />
<glyph unicode="L" horiz-adv-x="1155" d="M68 0v61l114 25q37 8 47.5 16.5t10.5 32.5v1000q0 24 -10.5 32.5t-47.5 16.5l-114 24v62h604v-62l-125 -24q-40 -8 -53 -17t-13 -34v-1043q96 -14 168 -14h43q59 0 128.5 15.5t109.5 39.5q31 39 74 140t61 171h59l-69 -442h-987z" />
<glyph unicode="M" horiz-adv-x="1843" d="M41 0v61l121 25q35 7 43.5 15t13.5 34q8 82 8 238v757q0 25 -10.5 35t-46.5 17l-117 26v62h416l438 -910l459 910h408v-62l-113 -24q-37 -8 -47 -16t-10 -33v-1000q0 -25 10 -33t47 -16l115 -25v-61h-605v61l125 25q40 8 53 17t13 34v873l-510 -1008h-31l-475 971v-600 q0 -156 8 -238q4 -24 16 -32.5t50 -16.5l137 -25v-61h-516z" />
<glyph unicode="N" horiz-adv-x="1482" d="M39 0v61l123 25q35 7 43.5 15t13.5 34q8 82 8 238v757q0 25 -10.5 35t-46.5 17l-121 26v62h383l719 -887v514q0 156 -8 238q-4 24 -16 32.5t-50 16.5l-139 24v62h516v-62l-119 -24q-35 -7 -43.5 -15t-13.5 -34q-8 -82 -8 -238v-915h-92l-832 1026v-635q0 -156 8 -238 q4 -24 16 -32.5t50 -16.5l139 -25v-61h-520z" />
<glyph unicode="O" horiz-adv-x="1490" d="M70 647q0 191 86 340.5t240 232.5t349 83q299 0 487.5 -181.5t188.5 -474.5q0 -298 -188 -485t-488 -187q-195 0 -349 84.5t-240 238t-86 349.5zM342 647q0 -97 13.5 -183t44 -162.5t76 -131.5t114.5 -87t155 -32q106 0 186.5 49.5t126.5 135.5t68.5 189t22.5 222 q0 116 -22 216t-68 183.5t-126.5 132t-187.5 48.5q-86 0 -155 -31.5t-114.5 -85.5t-76 -129t-44 -158t-13.5 -176z" />
<glyph unicode="P" horiz-adv-x="1187" d="M68 0v61l114 25q37 8 47.5 16.5t10.5 32.5v1000q0 24 -10.5 32.5t-47.5 16.5l-114 24v62h600q485 0 485 -348q0 -190 -128.5 -305t-348.5 -115q-125 0 -195 20v-385q0 -25 11.5 -34t50.5 -17l141 -25v-61h-616zM481 584h74q185 0 272.5 82t87.5 249q0 136 -67.5 207.5 t-222.5 71.5h-21q-73 0 -123 -16v-594z" />
<glyph unicode="Q" horiz-adv-x="1490" d="M70 647q0 190 86 340t240 233t349 83q147 0 273 -48.5t214.5 -134.5t138.5 -208t50 -265q0 -247 -136.5 -424t-366.5 -231q182 -254 301 -318l139 -34v-58h-316q-59 46 -143.5 156t-163.5 235q-145 2 -268.5 53.5t-210.5 140t-136.5 213t-49.5 267.5zM342 647 q0 -97 13.5 -183t44 -162.5t76 -131.5t114.5 -87t155 -32q106 0 186.5 49.5t126.5 135.5t68.5 189t22.5 222q0 116 -22 216t-68 183.5t-126.5 132t-187.5 48.5q-86 0 -155 -31.5t-114.5 -85.5t-76 -129t-44 -158t-13.5 -176z" />
<glyph unicode="R" horiz-adv-x="1327" d="M68 0v61l114 25q37 8 47.5 16.5t10.5 32.5v1000q0 24 -10.5 32.5t-47.5 16.5l-114 24v62h616q229 0 357 -83t128 -249q0 -73 -27 -133.5t-74.5 -101t-105 -66.5t-124.5 -39q14 -10 26.5 -22.5t28 -33.5t24.5 -33.5t29.5 -44t28.5 -42.5l127 -193q73 -108 127 -137 l114 -31v-61h-325q-27 20 -59.5 60.5t-53.5 71.5t-63 97l-199 318h-162v-412q0 -24 10.5 -32.5t47.5 -16.5l114 -25v-61h-585zM481 631h133q312 0 312 297q0 268 -295 268h-35q-53 0 -115 -16v-549z" />
<glyph unicode="S" horiz-adv-x="1064" d="M90 442h60q36 -198 79 -282q39 -49 104.5 -83t139.5 -34q120 0 191 68.5t71 175.5q0 97 -51.5 155t-148.5 99l-183 80q-58 27 -99 55t-77 69t-54 97t-18 127q0 103 61 179.5t162 115.5t226 39q151 0 281 -64l47 55h41l10 -403h-62q-12 63 -36.5 134t-49.5 112 q-36 41 -94.5 69.5t-136.5 28.5q-98 0 -161.5 -52.5t-63.5 -152.5q0 -86 39.5 -132t126.5 -87l190 -84q52 -23 91 -45.5t78.5 -55t64.5 -69t41 -87t16 -110.5q0 -176 -141.5 -280.5t-366.5 -104.5q-169 0 -295 62l-33 -62h-45q6 73 6 197q0 5 1 11q0 120 -11 259z" />
<glyph unicode="T" horiz-adv-x="1236" d="M16 885l25 401q66 -16 164 -16h827q98 0 164 16l25 -401h-60q-43 166 -96 254q-36 29 -113.5 43t-156.5 14h-60v-1061q0 -26 9 -34t49 -15l131 -25v-61h-619v61l131 25q37 8 47.5 16.5t10.5 32.5v1061h-54q-192 0 -268 -57q-53 -88 -96 -254h-60z" />
<glyph unicode="U" horiz-adv-x="1441" d="M72 1206v64h551v-64l-119 -24q-29 -4 -37 -14t-8 -35v-658q0 -387 309 -387q182 0 272 109t90 295v647q0 19 -11.5 28t-45.5 15l-131 24v64h444v-64l-79 -18q-32 -6 -45 -16.5t-13 -32.5v-647q0 -248 -133.5 -382.5t-380.5 -134.5q-516 0 -516 500v658q0 24 -8.5 34 t-38.5 17z" />
<glyph unicode="V" horiz-adv-x="1253" d="M-23 1208v62h521v-62l-90 -22q-39 -10 -47 -25.5t6 -44.5l321 -840l322 834q13 30 4.5 48t-45.5 28l-86 22v62h395v-62l-49 -16q-27 -8 -43 -22t-33 -48l-485 -1147h-107l-455 1145q-12 30 -25.5 44t-37.5 22z" />
<glyph unicode="W" horiz-adv-x="1925" d="M-23 1208v62h512v-62l-98 -22q-42 -8 -42 -42q0 -14 7 -32l267 -836l280 719l-49 144q-7 18 -19 27t-40 20l-66 22v62h516v-62l-98 -22q-44 -9 -44 -41q0 -13 7 -29l291 -840l282 834q14 38 8 54t-36 22l-99 22v62h394v-62l-49 -16q-27 -8 -43 -22t-33 -48l-445 -1147 h-118l-301 859l-365 -859h-119l-379 1164q-7 19 -18.5 27.5t-42.5 19.5z" />
<glyph unicode="X" horiz-adv-x="1269" d="M-2 0v61l57 17q67 19 115 80l360 438l-383 537q-20 26 -34.5 37.5t-44.5 21.5l-54 16v62h523v-62l-80 -16q-46 -8 -46 -31q0 -11 11 -26l262 -367l234 338q16 20 16 36q0 28 -49 42l-88 24v62h438v-62l-57 -16q-40 -11 -64.5 -29.5t-50.5 -50.5l-324 -420l400 -557 q20 -27 35 -38.5t43 -18.5l55 -17v-61h-524v61l79 17q37 7 44.5 20.5t-9.5 36.5l-276 385l-269 -356q-16 -20 -16 -36q0 -28 49 -42l88 -25v-61h-440z" />
<glyph unicode="Y" horiz-adv-x="1236" d="M0 1206v64h514v-62l-82 -18q-37 -8 -46 -17.5t3 -33.5l313 -482l277 476q15 30 5 39.5t-54 17.5l-86 18v62h393v-62l-55 -16q-27 -7 -41 -18.5t-33 -38.5l-360 -578v-422q0 -26 8.5 -34t48.5 -15l129 -25v-61h-617v61l132 25q37 8 47 16t10 33v391l-393 609 q-25 36 -36 43t-28 12z" />
<glyph unicode="Z" horiz-adv-x="1155" d="M68 0v45l741 1141h-268q-179 0 -271 -25q-36 -50 -70 -126t-46 -132h-60l25 385q55 -18 196 -18h783v-43l-733 -1135h272q208 0 289 33q35 35 74.5 112t68.5 154h59l-65 -391h-995z" />
<glyph unicode="[" horiz-adv-x="616" d="M115 -516v2048h477v-115l-320 25v-1868l320 25v-115h-477z" />
<glyph unicode="\" horiz-adv-x="630" d="M37 1409h106l451 -1565h-107z" />
<glyph unicode="]" horiz-adv-x="616" d="M25 -401l319 -25v1868l-319 -25v115h477v-2048h-477v115z" />
<glyph unicode="^" d="M94 672l428 639h37l428 -639h-65l-379 456h-4l-379 -456h-66z" />
<glyph unicode="_" horiz-adv-x="1024" d="M0 -164h1024v-104h-1024v104z" />
<glyph unicode="`" horiz-adv-x="1130" d="M377 1411q0 32 23 56t57 24q36 0 60 -22t48 -74l125 -297h-51l-207 207q-30 30 -42.5 51.5t-12.5 54.5z" />
<glyph unicode="a" horiz-adv-x="1024" d="M74 221q0 43 14 78.5t42.5 63t59.5 48.5t78.5 39t85 29.5t92.5 26.5l191 49v111q0 223 -205 223q-88 0 -151 -37l16 -33q27 -52 27 -94q0 -51 -30 -81t-83 -30q-47 0 -76 30t-29 81q0 46 35 88t82 70l41 24q133 76 250 76q166 0 250 -70t84 -225v-403q0 -138 16 -185 q58 -24 142 -24v-45q-44 -27 -100 -41.5t-101 -14.5q-72 0 -113.5 39.5t-52.5 110.5h-2q-45 -67 -120 -108.5t-173 -41.5q-129 0 -199.5 64.5t-70.5 181.5zM274 248q0 -76 43 -114t119 -38q64 0 118.5 27t82.5 65v299l-145 -41q-38 -13 -61.5 -22t-56.5 -27t-52.5 -37 t-33.5 -48t-14 -64z" />
<glyph unicode="b" horiz-adv-x="1179" d="M51 1350v45l291 55h74q-17 -154 -17 -301v-346q48 77 128.5 128.5t183.5 51.5q184 0 285.5 -125.5t101.5 -349.5q0 -234 -127 -383.5t-348 -149.5q-165 0 -261 84l-145 -84h-47q16 91 16 275v987q0 34 -14 51t-66 39zM399 279q0 -97 59 -156.5t142 -59.5q134 0 204 110 t70 310q0 175 -71 271t-205 96q-54 0 -110 -29t-89 -73v-469z" />
<glyph unicode="c" horiz-adv-x="958" d="M74 483q0 225 139 362.5t348 137.5q129 0 224.5 -68.5t95.5 -179.5q0 -58 -35 -92.5t-84 -34.5t-82 32.5t-33 86.5q0 65 58 123q-41 57 -146 57q-121 0 -193.5 -106t-72.5 -273q0 -196 89 -302.5t236 -106.5q144 0 238 121l23 -25q-48 -108 -140.5 -174t-230.5 -66 q-195 0 -314.5 136.5t-119.5 371.5z" />
<glyph unicode="d" horiz-adv-x="1196" d="M82 477q0 223 135 364.5t340 141.5q68 0 129.5 -24t93.5 -64v332q0 58 -13 75t-75 31l-71 19v43l329 55h60q-17 -153 -17 -295v-1010q0 -23 10.5 -31.5t47.5 -19.5l86 -24v-45l-357 -50v164q-40 -71 -116 -117.5t-175 -46.5q-196 0 -301.5 133t-105.5 369zM307 492 q0 -190 79.5 -286.5t205.5 -96.5q59 0 109 25t79 61v651q-79 43 -172 43q-137 0 -219 -105.5t-82 -291.5z" />
<glyph unicode="e" horiz-adv-x="999" d="M74 479q0 223 128 363.5t341 140.5q167 0 266.5 -86.5t99.5 -239.5q0 -56 -16 -110l-608 16v-41q0 -194 87.5 -298.5t243.5 -104.5q159 0 261 125l24 -19q-124 -250 -393 -250q-198 0 -316 139t-118 365zM293 623l399 18q10 20 10 64q0 102 -43.5 152t-123.5 50 q-104 0 -166.5 -80t-75.5 -204z" />
<glyph unicode="f" horiz-adv-x="688" d="M57 831l33 103h117v57q0 222 114.5 340.5t311.5 118.5q84 0 135 -35t51 -104q0 -51 -32 -79t-74 -28q-57 0 -93 48q-23 29 -23 72q0 27 9 60q-78 0 -132 -69t-54 -225v-156h237v-103h-237v-702q0 -24 11.5 -34t51.5 -17l131 -25v-53h-540v53l67 17q36 8 51 18t15 33v710 h-150z" />
<glyph unicode="g" horiz-adv-x="1064" d="M20 -289q0 47 27 88.5t71 71.5t91.5 51.5t97.5 34.5q-135 42 -135 145q0 37 16 68.5t49 57.5t61.5 43t74.5 40q-136 23 -213.5 113t-77.5 225q0 153 112.5 243.5t272.5 90.5q133 0 222 -54.5t130 -146.5q12 94 57.5 147.5t112.5 53.5q47 0 75 -26t28 -68 q0 -48 -27.5 -79.5t-73.5 -31.5q-54 0 -106 66q-41 -41 -41 -156v-24q0 -172 -107.5 -266.5t-269.5 -94.5h-14q-50 -18 -83.5 -49t-33.5 -66t24 -50.5t74 -20.5l275 -23q131 -10 197.5 -66.5t66.5 -150.5q0 -89 -52.5 -163.5t-138 -122t-189.5 -73.5t-210 -26 q-168 0 -265.5 57.5t-97.5 161.5zM215 -252q0 -164 260 -164q57 0 109.5 13.5t96.5 39t70.5 69.5t26.5 99q0 60 -43.5 86.5t-152.5 34.5l-222 17q-70 -39 -107.5 -85t-37.5 -110zM287 655q0 -130 47 -207t133 -77t133 76.5t47 207.5q0 121 -47 190.5t-133 69.5 q-87 0 -133.5 -68.5t-46.5 -191.5z" />
<glyph unicode="h" horiz-adv-x="1245" d="M74 1352v45l286 53h76q-16 -147 -16 -295v-375q101 203 319 203q157 0 237.5 -88.5t80.5 -245.5v-528q0 -24 12 -33.5t49 -17.5l76 -17v-53h-481v53l69 17q37 8 49.5 17.5t12.5 33.5v475q0 55 -8 97.5t-28 82t-60.5 61t-100.5 21.5q-80 0 -139.5 -42.5t-87.5 -102.5v-592 q0 -24 12 -33.5t49 -17.5l76 -17v-53h-481v53l69 17q37 8 49.5 17.5t12.5 33.5v1116q0 33 -15 50t-65 40z" />
<glyph unicode="i" horiz-adv-x="622" d="M82 0v53l70 17q37 8 49 17.5t12 33.5v649q0 35 -15.5 53.5t-68.5 36.5l-39 17v53l277 53h59v-862q0 -24 12 -33.5t49 -17.5l76 -17v-53h-481zM201 1321q0 59 35.5 94t91.5 35t91.5 -35t35.5 -94q0 -62 -35 -97.5t-92 -35.5t-92 35.5t-35 97.5z" />
<glyph unicode="j" horiz-adv-x="598" d="M-170 -367q0 53 33 86t84 33q48 0 77.5 -30t31.5 -72v-9q0 -39 -15 -81q160 21 160 284v926q0 35 -15 52t-71 38l-45 17v51l284 55h60v-1061q0 -209 -113.5 -319.5t-300.5 -110.5q-69 0 -119.5 36.5t-50.5 104.5zM180 1321q0 59 36 94t93 35q56 0 91.5 -35t35.5 -94 q0 -62 -35 -97.5t-92 -35.5t-93 35.5t-36 97.5z" />
<glyph unicode="k" horiz-adv-x="1122" d="M66 1352v45l288 53h76q-16 -147 -16 -295v-1034q0 -24 12 -33.5t49 -17.5l74 -17v-53h-479v53l69 17q37 8 49.5 17.5t12.5 33.5v1116q0 33 -15 50t-65 40zM428 508v20q64 12 115 43l217 230q14 15 14 28q0 24 -53 37l-66 17v51h430v-51l-65 -15q-33 -7 -54 -20t-51 -39 l-260 -225l195 -283q127 -182 211 -231l69 -17v-53h-286q-26 20 -71.5 72t-90.5 116l-199 297z" />
<glyph unicode="l" horiz-adv-x="614" d="M74 1352v45l286 53h76q-16 -147 -16 -295v-1034q0 -24 12 -33.5t49 -17.5l76 -17v-53h-481v53l69 17q37 8 49.5 17.5t12.5 33.5v1116q0 33 -15 50t-65 40z" />
<glyph unicode="m" horiz-adv-x="1851" d="M76 0v53l69 17q37 8 49.5 17.5t12.5 33.5v649q0 35 -15.5 53.5t-68.5 36.5l-41 17v53l278 53h60v-203q101 203 319 203q229 0 293 -203h8q101 203 320 203q154 0 229.5 -87.5t75.5 -246.5v-528q0 -24 12 -33.5t49 -17.5l76 -17v-53h-481v53l70 17q37 8 49 17.5t12 33.5 v475q0 45 -3 78.5t-14.5 70t-31 59.5t-54 38.5t-81.5 15.5q-80 0 -139 -42.5t-87 -102.5v-592q0 -24 11 -32t51 -19l76 -17v-53h-482v53l70 17q37 8 49 17.5t12 33.5v475q0 45 -3 78t-14 70t-30 60t-53.5 38.5t-81.5 15.5q-80 0 -139.5 -42.5t-87.5 -102.5v-592 q0 -24 12 -33.5t49 -17.5l76 -17v-53h-481z" />
<glyph unicode="n" horiz-adv-x="1245" d="M76 0v53l69 17q37 8 49.5 17.5t12.5 33.5v649q0 33 -15.5 50t-68.5 40l-41 17v53l278 53h60v-203q101 203 319 203q157 0 237.5 -88.5t80.5 -245.5v-528q0 -24 12 -33.5t49 -17.5l76 -17v-53h-481v53l69 17q37 8 49.5 17.5t12.5 33.5v475q0 55 -8 97.5t-28 82t-60.5 61 t-100.5 21.5q-80 0 -139.5 -42.5t-87.5 -102.5v-592q0 -24 12 -33.5t49 -17.5l76 -17v-53h-481z" />
<glyph unicode="o" horiz-adv-x="1130" d="M74 483q0 217 137 358.5t354 141.5q220 0 356 -137t136 -363q0 -219 -138 -363.5t-354 -144.5q-220 0 -355.5 139t-135.5 369zM309 483q0 -120 28.5 -218t88 -159t139.5 -61q118 0 187 109.5t69 328.5q0 119 -28.5 215t-88 155.5t-139.5 59.5q-117 0 -186.5 -110 t-69.5 -320z" />
<glyph unicode="p" horiz-adv-x="1187" d="M61 -438l70 16q38 8 51 17.5t13 33.5v1141q0 33 -16 50t-70 40l-39 17v53l278 53h60v-168q46 73 127 120.5t180 47.5q192 0 291.5 -127.5t99.5 -351.5q0 -229 -129 -379t-334 -150q-69 0 -136 25t-99 63v-432q0 -23 12.5 -31.5t58.5 -19.5l99 -18v-54h-517v54zM408 117 q61 -45 176 -45q136 0 216.5 111t80.5 302q0 185 -72.5 275t-200.5 90q-60 0 -114.5 -26t-85.5 -64v-643z" />
<glyph unicode="q" horiz-adv-x="1179" d="M82 477q0 219 135 362.5t340 143.5q66 0 129 -24t98 -62l156 86h53v-1356q0 -23 14 -33t52 -18l74 -14v-54h-537v54l119 24q40 7 52.5 18.5t12.5 33.5v501q-40 -71 -116 -117.5t-175 -46.5q-196 0 -301.5 133t-105.5 369zM307 492q0 -190 79.5 -286.5t205.5 -96.5 q59 0 109 25t79 61v651q-79 43 -172 43q-136 0 -218.5 -107t-82.5 -290z" />
<glyph unicode="r" horiz-adv-x="794" d="M76 0v53l69 17q37 8 49.5 17.5t12.5 33.5v649q0 35 -15.5 53.5t-68.5 36.5l-41 17v53l278 53h60v-223q38 96 106.5 159.5t143.5 63.5q56 0 89.5 -31t33.5 -82q0 -56 -31.5 -93t-63.5 -50q-15 32 -43 53t-67 21q-92 0 -168 -99v-565q0 -31 12 -39.5t62 -19.5l114 -25v-53 h-532z" />
<glyph unicode="s" horiz-adv-x="901" d="M106 336h60q42 -162 82 -221q69 -66 190 -66q78 0 125 42.5t47 115.5q0 68 -36 108t-109 68l-154 59q-87 33 -141.5 97t-54.5 161q0 91 53.5 157t135.5 96t179 30q65 0 126.5 -13.5t95.5 -33.5l32 47h41v-311h-49q-21 109 -51 172q-71 71 -193 71q-72 0 -121 -39.5 t-49 -113.5q0 -64 31.5 -99t102.5 -63l145 -55q102 -38 164.5 -101t62.5 -168q0 -77 -31 -136.5t-85.5 -94.5t-121.5 -52.5t-145 -17.5q-138 0 -241 56l-33 -56h-49z" />
<glyph unicode="t" horiz-adv-x="700" d="M49 831v72q85 22 133 70q25 38 59 114.5t46 124.5h86v-278h284v-103h-284v-550q0 -101 33 -142t122 -41q92 0 156 64l25 -27q-43 -73 -117 -116.5t-170 -43.5q-125 0 -193.5 66.5t-68.5 187.5v602h-111z" />
<glyph unicode="u" horiz-adv-x="1204" d="M51 877v51l301 37h54q-17 -111 -17 -263v-323q0 -63 7.5 -109t27 -85t56.5 -59t91 -20q82 0 141 38.5t91 99.5v518q0 39 -10.5 50t-55.5 30l-82 28v52l312 43h65q-16 -123 -16 -295v-518q0 -22 12.5 -34.5t42.5 -23.5l66 -24v-45l-334 -50v207q-29 -79 -114.5 -143 t-203.5 -64q-153 0 -231 89t-78 255v474q0 26 -9 37t-48 24z" />
<glyph unicode="v" horiz-adv-x="923" d="M-16 883v51h409v-51l-63 -19q-40 -9 -40 -39q0 -8 3 -18l217 -578l215 557q13 37 3.5 52t-48.5 26l-66 19v51h324v-51l-23 -9q-27 -11 -39 -22t-24 -37l-354 -815l-115 -25l-328 838q-18 52 -49 61z" />
<glyph unicode="w" horiz-adv-x="1441" d="M-37 883v51h418v-51l-72 -17q-42 -9 -42 -40q0 -9 3 -19l199 -563l193 465l-37 108q-10 28 -21.5 38.5t-36.5 18.5l-22 9v51h418v-51l-72 -19q-42 -12 -42 -40q0 -8 3 -17l192 -563l201 542q5 15 5 27q0 39 -54 51l-70 19v51h342v-51l-22 -9q-31 -11 -43.5 -22t-22.5 -39 l-346 -813l-112 -25l-213 598l-252 -573l-111 -25l-303 842q-12 40 -57 57z" />
<glyph unicode="x" horiz-adv-x="933" d="M-2 0v51l57 15q44 12 86 69l236 307l-256 381q-24 38 -80 51l-31 9v51h328q-9 -44 -7 -54t17 -36l164 -246l125 188q23 42 15.5 56.5t-52.5 25.5l-70 15v51h375v-51l-51 -15q-27 -8 -44.5 -19.5t-39.5 -39.5l-215 -277l281 -417q28 -48 71 -56l31 -8v-51h-311 q3 10 4 18.5t2 15t0 12.5t-1.5 9.5t-3.5 9.5t-4 8.5t-5.5 10t-6.5 10.5l-190 281l-154 -234q-16 -25 -15.5 -39.5t13 -21t43.5 -14.5l70 -15v-51h-381z" />
<glyph unicode="y" horiz-adv-x="909" d="M-74 -360q0 53 34.5 85.5t86.5 32.5q50 0 80.5 -27.5t30.5 -74.5q0 -42 -23 -68q51 0 92.5 52.5t89.5 162.5l76 174l-346 836q-18 50 -51 61l-23 9v51h410v-51l-66 -19q-39 -9 -39 -38q0 -9 3 -19l225 -569l209 548q13 32 5 49.5t-50 28.5l-66 19v51h324v-49l-23 -11 q-24 -9 -37.5 -20.5t-23.5 -38.5l-424 -993q-18 -45 -30.5 -73t-32 -67t-36.5 -63t-41.5 -51t-50.5 -41.5t-59.5 -24.5t-71.5 -10q-73 0 -122.5 39.5t-49.5 108.5z" />
<glyph unicode="z" horiz-adv-x="917" d="M55 0v41l537 817h-277q-37 0 -53 -7.5t-33 -35.5l-104 -192h-47l10 237l-10 74h764v-43l-535 -809h297q22 0 36 10.5t28 34.5l139 223h51q-23 -108 -33 -231q-4 -41 -8 -119h-762z" />
<glyph unicode="{" horiz-adv-x="743" d="M25 483v70q65 0 118.5 14t98 44.5t69.5 86.5t25 133v373q0 352 383 352v-53q-118 0 -171.5 -65.5t-53.5 -212.5v-371q0 -137 -74.5 -221t-214.5 -115q140 -31 214.5 -115t74.5 -221v-391q0 -147 53.5 -212.5t171.5 -65.5v-54q-383 0 -383 353v393q0 77 -25 133 t-69.5 86.5t-98 44.5t-118.5 14z" />
<glyph unicode="|" horiz-adv-x="745" d="M295 -532v2048h156v-2048h-156z" />
<glyph unicode="}" horiz-adv-x="743" d="M25 -487q116 0 169.5 65.5t53.5 212.5v391q0 136 75 220t214 116q-139 32 -214 116t-75 220v371q0 147 -53.5 212.5t-169.5 65.5v53q383 0 383 -352v-373q0 -77 25 -133t69.5 -86.5t98 -44.5t118.5 -14v-70q-65 0 -118.5 -14t-98 -44.5t-69.5 -86.5t-25 -133v-393 q0 -353 -383 -353v54z" />
<glyph unicode="~" d="M137 522q0 99 62 176.5t161 77.5q54 0 114 -23t104 -50.5t95 -50.5t89 -23q55 0 94.5 42.5t44.5 88.5h51q0 -102 -61.5 -178t-161.5 -76q-55 0 -115.5 23t-103.5 50.5t-93.5 50.5t-88.5 23q-56 0 -93.5 -41.5t-46.5 -89.5h-51z" />
<glyph unicode="&#xa1;" horiz-adv-x="557" d="M133 815q0 63 40 103t106 40q65 0 105 -40.5t40 -102.5q0 -63 -40 -103t-105 -40t-105.5 40.5t-40.5 102.5zM139 -319q48 255 75.5 510t27.5 356h73q0 -101 27.5 -356t75.5 -510q-50 -50 -139 -50q-90 0 -140 50z" />
<glyph unicode="&#xa2;" d="M43 623q0 141 42.5 259t117.5 198.5t175.5 127t217.5 52.5v133h61v-131q136 -7 258 -58l33 41h43l17 -354h-62q-32 136 -88 217q-69 76 -201 84v-1139q112 9 179 62q29 29 63 98.5t53 130.5h62l-64 -305q-107 -53 -293 -62v-165h-61v163q-269 7 -411 180.5t-142 467.5z M279 631q0 -243 88 -404.5t229 -173.5v1137q-81 -10 -143.5 -61t-99.5 -130t-55.5 -172.5t-18.5 -195.5z" />
<glyph unicode="&#xa3;" d="M0 -16v41l92 112q66 0 110.5 53t51.5 154l20 254h-168l41 90h136l12 139q17 196 140.5 315.5t314.5 119.5q113 0 185.5 -49t72.5 -119q0 -49 -26 -80t-75 -31q-48 0 -76 29t-28 69q0 54 39 80q-24 33 -90 33q-111 0 -166 -83t-68 -243l-16 -180h284v-90h-290l-11 -129 q-5 -62 -26 -116t-49.5 -90t-64 -63.5t-65 -41.5t-55.5 -21q140 0 305 -27.5t213 -27.5q108 0 155.5 49t47.5 156h53q0 -172 -73.5 -262.5t-237.5 -90.5q-92 0 -270 33t-328 33q-54 0 -90 -16z" />
<glyph unicode="&#xa4;" d="M135 362l105 87q-68 89 -68 215q0 122 68 215l-105 86l107 102l82 -109q97 66 217 66t217 -66l82 109l106 -102l-106 -86q69 -95 69 -215q0 -124 -69 -215l106 -87l-106 -102l-82 107q-94 -64 -217 -64t-217 64l-82 -107zM287 664q0 -117 75 -190t179 -73t179 73t75 190 q0 120 -74.5 191t-179.5 71t-179.5 -71t-74.5 -191z" />
<glyph unicode="&#xa5;" d="M-20 1174v63h503v-61l-77 -19q-37 -8 -46 -17t2 -34l267 -449l239 443q12 29 3 39t-52 18l-82 19v61h389v-61l-55 -17q-30 -8 -45.5 -19.5t-28.5 -37.5l-311 -520h295v-86h-307v-164h307v-86h-307v-111q0 -26 8.5 -34t48.5 -15l129 -25v-61h-616v61l131 25q37 8 47 16 t10 33v111h-307v86h307v164h-307v86h281l-314 520q-2 3 -7.5 11t-7 10l-6 8t-6.5 7.5t-6.5 5t-8.5 5.5t-9 4t-12 4z" />
<glyph unicode="&#xa6;" horiz-adv-x="745" d="M295 270h156v-802h-156v802zM295 795v721h156v-721h-156z" />
<glyph unicode="&#xa7;" horiz-adv-x="1097" d="M137 -301q0 54 32.5 85.5t76.5 31.5q49 0 86 -28.5t37 -80.5q0 -54 -33 -98q58 -49 153 -49q85 0 142 47t57 133q0 69 -36 111.5t-136 107.5l-133 88q-109 72 -147 108q-91 87 -91 214q0 217 281 336l-23 16q-54 35 -90 70t-62 88.5t-26 115.5t24.5 114.5t64 87.5 t91 59.5t103.5 35.5t102 11q152 0 252.5 -57.5t100.5 -149.5q0 -54 -32.5 -85.5t-76.5 -31.5q-49 0 -86 28t-37 80q0 55 33 99q-58 49 -154 49q-85 0 -141.5 -46.5t-56.5 -133.5q0 -70 33.5 -109.5t136.5 -109.5l135 -88q109 -71 147 -108q90 -87 90 -214q0 -213 -280 -338 l22 -14q83 -54 130.5 -119.5t47.5 -155.5q0 -77 -37 -138t-95.5 -96.5t-123.5 -54t-129 -18.5q-152 0 -252 57.5t-100 149.5zM326 428q0 -59 24.5 -97.5t85.5 -80.5l197 -133q141 109 141 250q0 58 -25 96.5t-85 81.5l-197 133q-73 -58 -107 -117.5t-34 -132.5z" />
<glyph unicode="&#xa8;" horiz-adv-x="1130" d="M254 1208q0 47 32 79t79 32t79.5 -32t32.5 -79t-32.5 -79.5t-79.5 -32.5t-79 32.5t-32 79.5zM653 1208q0 47 33 79t80 32t79 -32t32 -79t-32 -79.5t-79 -32.5t-80 32.5t-33 79.5z" />
<glyph unicode="&#xa9;" horiz-adv-x="1490" d="M72 639q0 185 92.5 338.5t246.5 239.5t334 86q188 0 341.5 -84.5t242 -237t88.5 -342.5q0 -139 -54.5 -263t-146 -211.5t-215 -138.5t-256.5 -51q-188 0 -341.5 84.5t-242.5 237t-89 342.5zM184 639q0 -248 158 -414t403 -166q161 0 289.5 76.5t199.5 208.5t71 295 t-71 295t-199.5 208.5t-289.5 76.5q-245 0 -403 -166t-158 -414zM365 639q0 165 115.5 267t307.5 102q87 0 195 -43l31 26h33l16 -252h-43q-8 40 -28.5 92.5t-39.5 75.5q-53 43 -164 43q-239 0 -239 -303q0 -148 63.5 -233.5t167.5 -85.5q90 0 152 41q44 56 82 159h49 l-47 -217q-91 -41 -246 -41q-97 0 -175.5 30.5t-128 82.5t-75.5 118t-26 138z" />
<glyph unicode="&#xaa;" horiz-adv-x="819" d="M51 707q0 40 18.5 73.5t45 55t70 41.5t79.5 31t88 24l142 39v71q0 86 -39 131.5t-111 45.5q-59 0 -115 -29q35 -53 35 -96q0 -95 -94 -95q-39 0 -62.5 25.5t-23.5 69.5q0 64 84 118l41 25q95 57 197 57q135 0 200.5 -53t65.5 -178v-309q0 -86 16 -131q44 -23 109 -23v-43 q-73 -41 -166 -41q-113 0 -135 105q-39 -45 -98 -75t-128 -30q-103 0 -161 49.5t-58 141.5zM223 735q0 -56 31 -88.5t86 -32.5q40 0 82.5 21.5t71.5 48.5v221l-105 -26q-30 -9 -47.5 -15t-43 -19t-39.5 -26.5t-25 -35.5t-11 -48z" />
<glyph unicode="&#xab;" horiz-adv-x="794" d="M41 524v66l348 319v-73l-186 -271v-8l186 -278v-74zM381 524v66l348 319v-73l-186 -271v-8l186 -278v-74z" />
<glyph unicode="&#xac;" d="M80 592v106h928v-475h-117v369h-811z" />
<glyph unicode="&#xad;" horiz-adv-x="581" d="M57 516v152h467v-152h-467z" />
<glyph unicode="&#xae;" horiz-adv-x="1490" d="M72 639q0 185 92.5 338.5t246.5 239.5t334 86q188 0 341.5 -84.5t242 -237t88.5 -342.5q0 -139 -54.5 -263t-146 -211.5t-215 -138.5t-256.5 -51q-188 0 -341.5 84.5t-242.5 237t-89 342.5zM184 639q0 -248 158 -414t403 -166q161 0 289.5 76.5t199.5 208.5t71 295 t-71 295t-199.5 208.5t-289.5 76.5q-245 0 -403 -166t-158 -414zM387 295v43l55 16q27 6 33 10t6 15v534q0 12 -4.5 15.5t-27.5 9.5l-62 16v45h350q295 0 295 -188q0 -83 -56.5 -132.5t-141.5 -62.5q5 -3 8.5 -5.5t8 -6.5t7.5 -6.5t8.5 -8t8 -8.5t10 -11.5t10.5 -12.5 t12.5 -15.5t14.5 -17.5l73 -94q4 -4 12.5 -14t12 -14t10.5 -11.5t11 -11.5t10 -9t11 -9t11 -7l74 -16v-43h-211q-41 21 -111 123l-118 172h-74v-209q0 -13 5.5 -17.5t25.5 -9.5l71 -16v-43h-348zM633 647h65q83 0 131 38t48 114q0 62 -38.5 98.5t-111.5 36.5h-22 q-41 0 -72 -8v-279z" />
<glyph unicode="&#xaf;" horiz-adv-x="1130" d="M299 1126v103h532v-103h-532z" />
<glyph unicode="&#xb0;" horiz-adv-x="884" d="M86 948q0 149 105.5 252t250.5 103q154 0 255.5 -100.5t101.5 -252.5q0 -149 -106 -251.5t-251 -102.5q-154 0 -255 100t-101 252zM199 948q0 -107 69.5 -183.5t173.5 -76.5q107 0 175.5 73t68.5 189q0 109 -70 185.5t-174 76.5q-106 0 -174.5 -73.5t-68.5 -190.5z" />
<glyph unicode="&#xb1;" d="M74 0v104h934v-104h-934zM74 616v107h409v364h115v-364h410v-107h-410v-387h-115v387h-409z" />
<glyph unicode="&#xb4;" horiz-adv-x="1130" d="M436 1092l127 297q24 52 48 74t61 22q34 0 56 -24t22 -56q0 -33 -13 -55t-43 -52l-207 -206h-51z" />
<glyph unicode="&#xb5;" horiz-adv-x="1155" d="M104 -354q0 116 18.5 286t18.5 240q0 122 -8 415.5t-8 346.5h213v-557q0 -271 184 -271q76 0 129.5 41t81.5 97v690h211v-739q0 -52 15 -75.5t55 -23.5q41 0 72 19.5t65 56.5l25 -33q-11 -20 -19 -33.5t-31 -39t-48 -41t-67 -28.5t-91 -13q-168 0 -187 178 q-29 -71 -93 -124.5t-155 -53.5q-141 0 -180 79q1 -7 5 -45t6.5 -69.5t6 -79.5t5.5 -104.5t2 -116.5q0 -57 -27 -98.5t-88 -41.5q-111 0 -111 138z" />
<glyph unicode="&#xb6;" horiz-adv-x="1105" d="M33 844q0 99 34.5 176.5t87.5 123.5t126 75.5t141.5 40t142.5 10.5h541v-103h-150v-1167h-104v1167h-158v-1675h-104v918h-74q-61 0 -123 12.5t-128 44t-116.5 79t-83 125t-32.5 173.5z" />
<glyph unicode="&#xb7;" horiz-adv-x="540" d="M139 539q0 63 41.5 100t98.5 37q58 0 98.5 -37t40.5 -100q0 -64 -40.5 -102t-98.5 -38q-57 0 -98.5 38.5t-41.5 101.5z" />
<glyph unicode="&#xb8;" horiz-adv-x="1130" d="M338 -473l39 63q13 -27 47 -48t74 -21q47 0 75.5 27.5t28.5 74.5q0 33 -16 57.5t-35 39t-35 42t-16 64.5q0 39 26 68t64 40l22 -8q-37 -37 -37 -69q0 -27 24.5 -51t53.5 -41t53.5 -49.5t24.5 -73.5q0 -83 -58 -120.5t-173 -37.5q-42 0 -88.5 12.5t-73.5 30.5z" />
<glyph unicode="&#xba;" horiz-adv-x="901" d="M59 909q0 168 109.5 276.5t282.5 108.5q175 0 283 -107t108 -286q0 -168 -109.5 -276.5t-281.5 -108.5q-175 0 -283.5 107t-108.5 286zM258 909q0 -152 49.5 -241.5t143.5 -89.5q90 0 141 80.5t51 242.5q0 153 -49 242.5t-143 89.5q-90 0 -141.5 -81t-51.5 -243z" />
<glyph unicode="&#xbb;" horiz-adv-x="794" d="M66 205v74l186 278v8l-186 271v73l348 -319v-66zM406 205v74l186 278v8l-186 271v73l348 -319v-66z" />
<glyph unicode="&#xbc;" horiz-adv-x="1867" d="M90 1133q51 17 175.5 76t178.5 91h52v-651q0 -21 8 -27.5t30 -10.5q5 -1 7 -1l141 -18v-53h-567v53l159 18q25 5 35 12.5t10 26.5v498h-8l-205 -68zM549 -25l774 1328h133l-776 -1328h-131zM1079 188v50l379 489q122 20 146 35h34v-492h125v-82h-125v-100q0 -11 3 -16 t16 -9l88 -16v-47h-416v47l117 16q20 3 20 25v100h-387zM1180 270h286v369z" />
<glyph unicode="&#xbd;" horiz-adv-x="1867" d="M90 1133q51 17 175.5 76t178.5 91h52v-651q0 -21 8 -27.5t30 -10.5q5 -1 7 -1l141 -18v-53h-567v53l159 18q25 5 35 12.5t10 26.5v498h-8l-205 -68zM489 -25l775 1328h133l-776 -1328h-132zM1104 0v49l239 197q88 72 134.5 137t46.5 145q0 63 -42.5 96t-121.5 33 q-82 0 -133 -39t-51 -114q0 -32 6 -55h-45q-9 20 -9 67q0 106 74.5 176t210.5 70q135 0 211 -56t76 -159q0 -43 -14.5 -81.5t-34 -67t-61 -64t-73 -58t-92.5 -63.5l-131 -90h320q31 0 52.5 22t74.5 113h43q-47 -137 -74 -258h-606z" />
<glyph unicode="&#xbe;" horiz-adv-x="1867" d="M115 655q0 37 22 61.5t62 24.5q42 0 62 -31.5t26 -107.5q25 -22 84 -22q188 0 188 170q0 67 -44.5 106t-117.5 39q-49 0 -94 -23v68q32 4 54.5 8t59 16t59.5 27.5t41 44t18 64.5q0 48 -35.5 76t-100.5 28q-79 0 -137.5 -37t-58.5 -106h-45q0 103 76.5 171t203.5 68 q122 0 188 -46t66 -128q0 -122 -164 -172q79 -9 142 -58.5t63 -133.5q0 -115 -97 -177.5t-265 -62.5q-108 0 -182 33.5t-74 99.5zM524 -25l776 1328h134l-777 -1328h-133zM1079 188v50l379 489q122 20 146 35h34v-492h125v-82h-125v-100q0 -11 3 -16t16 -9l88 -16v-47h-416 v47l117 16q20 3 20 25v100h-387zM1180 270h286v369z" />
<glyph unicode="&#xbf;" horiz-adv-x="942" d="M113 -82q0 54 14.5 101t35.5 81t59 69.5t69.5 58.5t83.5 57l47 30q50 33 72 61.5t22 67.5q0 46 -24 93h145q0 -34 -4.5 -62t-14.5 -51.5t-18.5 -39.5t-26 -33.5t-27 -26.5t-31 -25.5t-28.5 -22.5l-34 -28q-80 -67 -115 -134t-35 -180q0 -106 64 -161.5t163 -55.5 q83 0 140 43q-27 75 -27 105q0 48 27 82.5t78 34.5q41 0 64.5 -25t23.5 -68q0 -67 -60.5 -128t-149.5 -95.5t-175 -34.5q-154 0 -246 74t-92 213zM418 815q0 64 39 103.5t104 39.5t105.5 -40.5t40.5 -102.5q0 -63 -40 -103t-106 -40q-65 0 -104 40t-39 103z" />
<glyph unicode="&#xc0;" horiz-adv-x="1236" d="M-25 0v61l84 23q44 11 62 66l448 1153h125l434 -1172q13 -40 66 -53l55 -17v-61h-516v61l103 23q29 6 36 21.5t-2 39.5l-82 224h-458l-78 -224q-10 -29 -3.5 -42.5t30.5 -18.5l102 -23v-61h-406zM342 1769q0 32 23 56t57 24q36 0 60 -22t48 -74l125 -297h-51l-207 207 q-30 30 -42.5 51.5t-12.5 54.5zM362 461h394l-199 547z" />
<glyph unicode="&#xc1;" horiz-adv-x="1236" d="M-25 0v61l84 23q44 11 62 66l448 1153h125l434 -1172q13 -40 66 -53l55 -17v-61h-516v61l103 23q29 6 36 21.5t-2 39.5l-82 224h-458l-78 -224q-10 -29 -3.5 -42.5t30.5 -18.5l102 -23v-61h-406zM362 461h394l-199 547zM600 1450l127 295q23 55 47 76.5t62 21.5 q34 0 55.5 -24t21.5 -56q0 -33 -12.5 -54.5t-42.5 -51.5l-207 -207h-51z" />
<glyph unicode="&#xc2;" horiz-adv-x="1236" d="M-25 0v61l84 23q44 11 62 66l448 1153h125l434 -1172q13 -40 66 -53l55 -17v-61h-516v61l103 23q29 6 36 21.5t-2 39.5l-82 224h-458l-78 -224q-10 -29 -3.5 -42.5t30.5 -18.5l102 -23v-61h-406zM332 1456l254 361h67l252 -361h-69l-213 195h-9l-213 -195h-69zM362 461 h394l-199 547z" />
<glyph unicode="&#xc3;" horiz-adv-x="1236" d="M-25 0v61l84 23q44 11 62 66l448 1153h125l434 -1172q13 -40 66 -53l55 -17v-61h-516v61l103 23q29 6 36 21.5t-2 39.5l-82 224h-458l-78 -224q-10 -29 -3.5 -42.5t30.5 -18.5l102 -23v-61h-406zM326 1452q0 33 5 63t18.5 60.5t33.5 53t52 36.5t73 14q43 0 81 -16.5 t61 -36.5t55 -36.5t65 -16.5q48 0 73 30.5t25 75.5h50q0 -97 -46.5 -162t-134.5 -65q-44 0 -83 16.5t-62.5 37t-55 37t-61.5 16.5q-50 0 -74 -30.5t-24 -76.5h-51zM362 461h394l-199 547z" />
<glyph unicode="&#xc4;" horiz-adv-x="1236" d="M-25 0v61l84 23q44 11 62 66l448 1153h125l434 -1172q13 -40 66 -53l55 -17v-61h-516v61l103 23q29 6 36 21.5t-2 39.5l-82 224h-458l-78 -224q-10 -29 -3.5 -42.5t30.5 -18.5l102 -23v-61h-406zM309 1565q0 47 33 79.5t80 32.5t78.5 -32.5t31.5 -79.5t-31.5 -79 t-78.5 -32t-80 32t-33 79zM362 461h394l-199 547zM711 1565q0 47 31.5 79.5t78.5 32.5t80 -32.5t33 -79.5t-33 -79t-80 -32t-78.5 32t-31.5 79z" />
<glyph unicode="&#xc5;" horiz-adv-x="1236" d="M-25 0v61l84 23q44 11 62 66l448 1153h125l434 -1172q13 -40 66 -53l55 -17v-61h-516v61l103 23q29 6 36 21.5t-2 39.5l-82 224h-458l-78 -224q-10 -29 -3.5 -42.5t30.5 -18.5l102 -23v-61h-406zM362 461h394l-199 547zM424 1636q0 81 56.5 131t142.5 50 q83 0 139.5 -50.5t56.5 -130.5t-56.5 -130t-139.5 -50q-86 0 -142.5 49.5t-56.5 130.5zM510 1636q0 -55 30 -87.5t83 -32.5q51 0 80.5 33t29.5 87q0 56 -29.5 88.5t-80.5 32.5q-53 0 -83 -34t-30 -87z" />
<glyph unicode="&#xc6;" horiz-adv-x="1785" d="M-31 0v61l90 23q49 12 76 72l563 1030l-98 22v62h862q98 0 164 16l39 -401h-59q-48 170 -103 252q-36 29 -119 43t-167 14h-23q-74 0 -156 -16v-465h222q42 24 76 81t42 109h43v-481h-43q-14 59 -45.5 114.5t-72.5 84.5h-222v-529q114 -16 179 -16h45q171 0 249 55 q31 34 70 118t57 152h60l-56 -401h-1015v61l112 25q37 8 47.5 16.5t10.5 32.5v281h-402l-141 -271q-24 -52 25 -61l96 -23v-61h-406zM438 498h359v676z" />
<glyph unicode="&#xc7;" horiz-adv-x="1359" d="M76 662q0 198 94.5 345t256.5 221.5t368 74.5q187 0 342 -68l41 51h43l20 -436h-57q-14 75 -40 158t-54 127q-126 98 -289 98q-97 0 -174.5 -30.5t-129.5 -83.5t-86.5 -126.5t-49.5 -155.5t-15 -175q0 -282 119.5 -446.5t312.5 -164.5q182 0 273 80q33 40 73 129.5 t68 169.5h57l-71 -383q-70 -29 -177.5 -50.5t-224.5 -21.5q-330 0 -515 183t-185 504zM532 -473l37 63q15 -27 48 -48t73 -21q48 0 76.5 27.5t28.5 74.5q0 33 -16 57.5t-34.5 39t-34.5 42t-16 64.5q0 39 26 68t64 40l23 -8q-37 -37 -37 -69q0 -27 24.5 -51t53.5 -41 t53.5 -49.5t24.5 -73.5q0 -83 -58 -120.5t-176 -37.5q-42 0 -88.5 12.5t-71.5 30.5z" />
<glyph unicode="&#xc8;" horiz-adv-x="1236" d="M68 0v61l114 25q37 8 47.5 16.5t10.5 32.5v1000q0 23 -10.5 32.5t-47.5 16.5l-114 24v62h845q98 0 164 16l39 -401h-59q-48 170 -103 252q-36 29 -120 43t-170 14h-25q-76 0 -158 -16v-465h230q42 24 76 81t42 109h43v-481h-43q-14 59 -45.5 114.5t-72.5 84.5h-230v-529 q114 -16 183 -16h43q178 0 256 55q31 34 70 118t57 152h59l-55 -401h-1026zM438 1731q0 32 23 55.5t57 23.5q36 0 60.5 -22t48.5 -74l125 -297h-52l-206 207q-30 30 -43 52t-13 55z" />
<glyph unicode="&#xc9;" horiz-adv-x="1236" d="M68 0v61l114 25q37 8 47.5 16.5t10.5 32.5v1000q0 23 -10.5 32.5t-47.5 16.5l-114 24v62h845q98 0 164 16l39 -401h-59q-48 170 -103 252q-36 29 -120 43t-170 14h-25q-76 0 -158 -16v-465h230q42 24 76 81t42 109h43v-481h-43q-14 59 -45.5 114.5t-72.5 84.5h-230v-529 q114 -16 183 -16h43q178 0 256 55q31 34 70 118t57 152h59l-55 -401h-1026zM500 1411l125 297q24 52 48 74t60 22q34 0 56 -24t22 -56q0 -34 -12 -56t-43 -50l-207 -207h-49z" />
<glyph unicode="&#xca;" horiz-adv-x="1236" d="M68 0v61l114 25q37 8 47.5 16.5t10.5 32.5v1000q0 23 -10.5 32.5t-47.5 16.5l-114 24v62h845q98 0 164 16l39 -401h-59q-48 170 -103 252q-36 29 -120 43t-170 14h-25q-76 0 -158 -16v-465h230q42 24 76 81t42 109h43v-481h-43q-14 59 -45.5 114.5t-72.5 84.5h-230v-529 q114 -16 183 -16h43q178 0 256 55q31 34 70 118t57 152h59l-55 -401h-1026zM336 1417l254 361h69l252 -361h-69l-213 197h-8l-215 -197h-70z" />
<glyph unicode="&#xcb;" horiz-adv-x="1236" d="M68 0v61l114 25q37 8 47.5 16.5t10.5 32.5v1000q0 23 -10.5 32.5t-47.5 16.5l-114 24v62h845q98 0 164 16l39 -401h-59q-48 170 -103 252q-36 29 -120 43t-170 14h-25q-76 0 -158 -16v-465h230q42 24 76 81t42 109h43v-481h-43q-14 59 -45.5 114.5t-72.5 84.5h-230v-529 q114 -16 183 -16h43q178 0 256 55q31 34 70 118t57 152h59l-55 -401h-1026zM315 1528q0 47 32 78.5t79 31.5q48 0 80.5 -31.5t32.5 -78.5t-33 -80t-80 -33t-79 33t-32 80zM715 1528q0 47 32.5 78.5t79.5 31.5q48 0 80.5 -31.5t32.5 -78.5t-33 -80t-80 -33t-79.5 33t-32.5 80 z" />
<glyph unicode="&#xcc;" horiz-adv-x="720" d="M68 0v61l114 25q37 8 47.5 16.5t10.5 32.5v1000q0 24 -10.5 32.5t-47.5 16.5l-114 24v62h585v-62l-114 -24q-37 -8 -47.5 -16.5t-10.5 -32.5v-1000q0 -24 10.5 -32.5t47.5 -16.5l114 -25v-61h-585zM154 1731q0 32 21.5 55.5t55.5 23.5q37 0 61 -22t48 -74l127 -297h-51 l-207 207q-30 27 -42.5 50t-12.5 57z" />
<glyph unicode="&#xcd;" horiz-adv-x="720" d="M68 0v61l114 25q37 8 47.5 16.5t10.5 32.5v1000q0 24 -10.5 32.5t-47.5 16.5l-114 24v62h585v-62l-114 -24q-37 -8 -47.5 -16.5t-10.5 -32.5v-1000q0 -24 10.5 -32.5t47.5 -16.5l114 -25v-61h-585zM252 1411l125 297q24 52 48 74t60 22q34 0 57 -24t23 -56 q0 -33 -13 -55.5t-44 -50.5l-205 -207h-51z" />
<glyph unicode="&#xce;" horiz-adv-x="720" d="M68 0v61l114 25q37 8 47.5 16.5t10.5 32.5v1000q0 24 -10.5 32.5t-47.5 16.5l-114 24v62h585v-62l-114 -24q-37 -8 -47.5 -16.5t-10.5 -32.5v-1000q0 -24 10.5 -32.5t47.5 -16.5l114 -25v-61h-585zM70 1417l254 361h69l252 -361h-70l-213 197h-8l-215 -197h-69z" />
<glyph unicode="&#xcf;" horiz-adv-x="720" d="M49 1528q0 47 32 78.5t79 31.5t79.5 -31.5t32.5 -78.5t-32.5 -80t-79.5 -33t-79 33t-32 80zM68 0v61l114 25q37 8 47.5 16.5t10.5 32.5v1000q0 24 -10.5 32.5t-47.5 16.5l-114 24v62h585v-62l-114 -24q-37 -8 -47.5 -16.5t-10.5 -32.5v-1000q0 -24 10.5 -32.5t47.5 -16.5 l114 -25v-61h-585zM449 1528q0 47 32.5 78.5t79.5 31.5t79 -31.5t32 -78.5t-32 -80t-79 -33t-79.5 33t-32.5 80z" />
<glyph unicode="&#xd0;" horiz-adv-x="1474" d="M70 0v61l114 25q37 8 47.5 16.5t10.5 32.5v486h-152v77h152v437q0 24 -10.5 32.5t-47.5 16.5l-114 24v62h628q212 0 371 -71.5t248.5 -213.5t89.5 -340q0 -137 -47.5 -255.5t-132.5 -204.5t-209.5 -135.5t-272.5 -49.5h-675zM483 92q102 -16 166 -16h43q210 0 333.5 151 t123.5 412q0 119 -24.5 215.5t-78.5 175.5t-149.5 122.5t-226.5 43.5h-45q-64 0 -142 -16v-482h213v-77h-213v-529z" />
<glyph unicode="&#xd1;" horiz-adv-x="1482" d="M39 0v61l123 25q35 7 43.5 15t13.5 34q8 82 8 238v757q0 25 -10.5 35t-46.5 17l-121 26v62h383l719 -887v514q0 156 -8 238q-4 24 -16 32.5t-50 16.5l-139 24v62h516v-62l-119 -24q-35 -7 -43.5 -15t-13.5 -34q-8 -82 -8 -238v-915h-92l-832 1026v-635q0 -156 8 -238 q4 -24 16 -32.5t50 -16.5l139 -25v-61h-520zM442 1413q0 41 9 79t29 72.5t57.5 55t87.5 20.5q43 0 81.5 -16.5t62 -36.5t55 -36.5t63.5 -16.5q48 0 73 30.5t25 75.5h51q0 -97 -47 -162t-135 -65q-44 0 -83 16.5t-62.5 37t-55 37t-61.5 16.5q-50 0 -74 -30.5t-24 -76.5h-52z " />
<glyph unicode="&#xd2;" horiz-adv-x="1490" d="M70 647q0 191 86 340.5t240 232.5t349 83q299 0 487.5 -181.5t188.5 -474.5q0 -298 -188 -485t-488 -187q-195 0 -349 84.5t-240 238t-86 349.5zM342 647q0 -97 13.5 -183t44 -162.5t76 -131.5t114.5 -87t155 -32q106 0 186.5 49.5t126.5 135.5t68.5 189t22.5 222 q0 116 -22 216t-68 183.5t-126.5 132t-187.5 48.5q-86 0 -155 -31.5t-114.5 -85.5t-76 -129t-44 -158t-13.5 -176zM557 1731q0 32 23 55.5t57 23.5q36 0 60 -22t48 -74l125 -297h-51l-207 207q-30 30 -42.5 52t-12.5 55z" />
<glyph unicode="&#xd3;" horiz-adv-x="1490" d="M70 647q0 191 86 340.5t240 232.5t349 83q299 0 487.5 -181.5t188.5 -474.5q0 -298 -188 -485t-488 -187q-195 0 -349 84.5t-240 238t-86 349.5zM342 647q0 -97 13.5 -183t44 -162.5t76 -131.5t114.5 -87t155 -32q106 0 186.5 49.5t126.5 135.5t68.5 189t22.5 222 q0 116 -22 216t-68 183.5t-126.5 132t-187.5 48.5q-86 0 -155 -31.5t-114.5 -85.5t-76 -129t-44 -158t-13.5 -176zM616 1411l127 297q24 52 48 74t61 22q34 0 56 -24t22 -56t-13 -54t-43 -52l-206 -207h-52z" />
<glyph unicode="&#xd4;" horiz-adv-x="1490" d="M70 647q0 191 86 340.5t240 232.5t349 83q299 0 487.5 -181.5t188.5 -474.5q0 -298 -188 -485t-488 -187q-195 0 -349 84.5t-240 238t-86 349.5zM342 647q0 -97 13.5 -183t44 -162.5t76 -131.5t114.5 -87t155 -32q106 0 186.5 49.5t126.5 135.5t68.5 189t22.5 222 q0 116 -22 216t-68 183.5t-126.5 132t-187.5 48.5q-86 0 -155 -31.5t-114.5 -85.5t-76 -129t-44 -158t-13.5 -176zM455 1417l254 361h69l252 -361h-69l-213 197h-9l-215 -197h-69z" />
<glyph unicode="&#xd5;" horiz-adv-x="1490" d="M70 647q0 191 86 340.5t240 232.5t349 83q299 0 487.5 -181.5t188.5 -474.5q0 -298 -188 -485t-488 -187q-195 0 -349 84.5t-240 238t-86 349.5zM342 647q0 -97 13.5 -183t44 -162.5t76 -131.5t114.5 -87t155 -32q106 0 186.5 49.5t126.5 135.5t68.5 189t22.5 222 q0 116 -22 216t-68 183.5t-126.5 132t-187.5 48.5q-86 0 -155 -31.5t-114.5 -85.5t-76 -129t-44 -158t-13.5 -176zM449 1413q0 33 5 63t18.5 60.5t33.5 53t52 36.5t73 14q43 0 81.5 -16.5t62 -36.5t55 -36.5t63.5 -16.5q48 0 73 30.5t25 75.5h51q0 -97 -47 -162t-135 -65 q-44 0 -83 16.5t-62.5 37t-55 37t-61.5 16.5q-50 0 -74 -30.5t-24 -76.5h-51z" />
<glyph unicode="&#xd6;" horiz-adv-x="1490" d="M70 647q0 191 86 340.5t240 232.5t349 83q299 0 487.5 -181.5t188.5 -474.5q0 -298 -188 -485t-488 -187q-195 0 -349 84.5t-240 238t-86 349.5zM342 647q0 -97 13.5 -183t44 -162.5t76 -131.5t114.5 -87t155 -32q106 0 186.5 49.5t126.5 135.5t68.5 189t22.5 222 q0 116 -22 216t-68 183.5t-126.5 132t-187.5 48.5q-86 0 -155 -31.5t-114.5 -85.5t-76 -129t-44 -158t-13.5 -176zM434 1528q0 47 32 78.5t79 31.5t79.5 -31.5t32.5 -78.5t-32.5 -80t-79.5 -33t-79 33t-32 80zM834 1528q0 47 32.5 78.5t79.5 31.5t79 -31.5t32 -78.5t-32 -80 t-79 -33t-79.5 33t-32.5 80z" />
<glyph unicode="&#xd7;" d="M84 274l367 371l-359 363l82 82l356 -363l363 367l78 -80l-361 -367l369 -373l-82 -81l-367 372l-366 -370z" />
<glyph unicode="&#xd8;" horiz-adv-x="1490" d="M70 647q0 191 86 340.5t240 232.5t349 83q183 0 326 -70l82 135h84l-104 -170q137 -86 212.5 -227t75.5 -324q0 -298 -188 -485t-488 -187q-178 0 -321 70l-86 -141h-84l108 176q-138 87 -215 233.5t-77 333.5zM342 647q0 -274 102 -434l557 909q-105 105 -256 105 q-86 0 -155 -31.5t-114.5 -85.5t-76 -129t-44 -158t-13.5 -176zM492 154q95 -103 253 -103q106 0 186.5 49.5t126.5 135.5t68.5 189t22.5 222q0 259 -100 416z" />
<glyph unicode="&#xd9;" horiz-adv-x="1441" d="M72 1206v64h551v-64l-119 -24q-29 -4 -37 -14t-8 -35v-658q0 -387 309 -387q182 0 272 109t90 295v647q0 19 -11.5 28t-45.5 15l-131 24v64h444v-64l-79 -18q-32 -6 -45 -16.5t-13 -32.5v-647q0 -248 -133.5 -382.5t-380.5 -134.5q-516 0 -516 500v658q0 24 -8.5 34 t-38.5 17zM594 1731q0 32 22 55.5t56 23.5q37 0 60.5 -21.5t47.5 -74.5l127 -297h-51l-207 207q-30 30 -42.5 52t-12.5 55z" />
<glyph unicode="&#xda;" horiz-adv-x="1441" d="M72 1206v64h551v-64l-119 -24q-29 -4 -37 -14t-8 -35v-658q0 -387 309 -387q182 0 272 109t90 295v647q0 19 -11.5 28t-45.5 15l-131 24v64h444v-64l-79 -18q-32 -6 -45 -16.5t-13 -32.5v-647q0 -248 -133.5 -382.5t-380.5 -134.5q-516 0 -516 500v658q0 24 -8.5 34 t-38.5 17zM653 1411l125 297q24 52 48.5 74t60.5 22q34 0 57 -24t23 -56t-13 -54t-43 -52l-206 -207h-52z" />
<glyph unicode="&#xdb;" horiz-adv-x="1441" d="M72 1206v64h551v-64l-119 -24q-29 -4 -37 -14t-8 -35v-658q0 -387 309 -387q182 0 272 109t90 295v647q0 19 -11.5 28t-45.5 15l-131 24v64h444v-64l-79 -18q-32 -6 -45 -16.5t-13 -32.5v-647q0 -248 -133.5 -382.5t-380.5 -134.5q-516 0 -516 500v658q0 24 -8.5 34 t-38.5 17zM492 1417l253 361h68l252 -361h-68l-213 197h-8l-215 -197h-69z" />
<glyph unicode="&#xdc;" horiz-adv-x="1441" d="M72 1206v64h551v-64l-119 -24q-29 -4 -37 -14t-8 -35v-658q0 -387 309 -387q182 0 272 109t90 295v647q0 19 -11.5 28t-45.5 15l-131 24v64h444v-64l-79 -18q-32 -6 -45 -16.5t-13 -32.5v-647q0 -248 -133.5 -382.5t-380.5 -134.5q-516 0 -516 500v658q0 24 -8.5 34 t-38.5 17zM469 1528q0 47 32.5 78.5t80.5 31.5q47 0 79.5 -31.5t32.5 -78.5t-32.5 -80t-79.5 -33t-80 33t-33 80zM870 1528q0 47 32.5 78.5t80.5 31.5q47 0 79 -31.5t32 -78.5t-32 -80t-79 -33t-80 33t-33 80z" />
<glyph unicode="&#xdd;" horiz-adv-x="1236" d="M0 1206v64h514v-62l-82 -18q-37 -8 -46 -17.5t3 -33.5l313 -482l277 476q15 30 5 39.5t-54 17.5l-86 18v62h393v-62l-55 -16q-27 -7 -41 -18.5t-33 -38.5l-360 -578v-422q0 -26 8.5 -34t48.5 -15l129 -25v-61h-617v61l132 25q37 8 47 16t10 33v391l-393 609 q-25 36 -36 43t-28 12zM532 1411l125 297q24 52 48.5 74t60.5 22q34 0 57 -24t23 -56q0 -33 -12.5 -54.5t-42.5 -51.5l-207 -207h-52z" />
<glyph unicode="&#xde;" horiz-adv-x="1187" d="M68 0v61l114 25q37 8 47.5 16.5t10.5 32.5v1000q0 24 -10.5 32.5t-47.5 16.5l-114 24v62h585v-62l-114 -24q-37 -8 -47.5 -16.5t-10.5 -32.5v-101h187q485 0 485 -348q0 -192 -128 -306t-349 -114q-114 0 -195 23v-154q0 -24 10.5 -32.5t47.5 -16.5l114 -25v-61h-585z M481 348h74q184 0 272 82.5t88 249.5q0 136 -67.5 207t-222.5 71h-21q-73 0 -123 -16v-594z" />
<glyph unicode="&#xdf;" horiz-adv-x="1277" d="M57 831l33 103h117v57q0 115 37.5 204t104 144t153.5 83t190 28q161 0 269 -72t108 -196q0 -21 -4 -40.5t-8.5 -34.5t-16 -32t-18 -26.5t-24 -26.5t-24.5 -23.5t-28.5 -25t-27.5 -23.5q-87 -80 -87 -159q0 -52 22.5 -86t78.5 -70l131 -86q32 -23 57 -45t53.5 -56 t44 -78.5t15.5 -95.5q0 -132 -94 -215.5t-256 -83.5q-142 0 -244 54l-25 260h50q26 -137 67 -191q55 -55 152 -55q80 0 120.5 50t40.5 128q0 58 -27 93.5t-87 76.5l-101 68q-42 28 -65.5 47t-52 50t-41.5 69t-13 86q0 54 22.5 98.5t47.5 67t67.5 54.5t59.5 48q78 71 78 178 q0 102 -68.5 163.5t-175.5 61.5q-52 0 -97.5 -15.5t-85 -48.5t-62.5 -94t-23 -143v-964q0 -39 31 -45l90 -25v-47h-467v53l67 17q24 6 36 10.5t21 14t9 24.5v712h-150z" />
<glyph unicode="&#xe0;" horiz-adv-x="1024" d="M74 221q0 43 14 78.5t42.5 63t59.5 48.5t78.5 39t85 29.5t92.5 26.5l191 49v111q0 223 -205 223q-88 0 -151 -37l16 -33q27 -52 27 -94q0 -51 -30 -81t-83 -30q-47 0 -76 30t-29 81q0 46 35 88t82 70l41 24q133 76 250 76q166 0 250 -70t84 -225v-403q0 -138 16 -185 q58 -24 142 -24v-45q-44 -27 -100 -41.5t-101 -14.5q-72 0 -113.5 39.5t-52.5 110.5h-2q-45 -67 -120 -108.5t-173 -41.5q-129 0 -199.5 64.5t-70.5 181.5zM274 248q0 -76 43 -114t119 -38q64 0 118.5 27t82.5 65v299l-145 -41q-38 -13 -61.5 -22t-56.5 -27t-52.5 -37 t-33.5 -48t-14 -64zM309 1411q0 32 23 56t57 24q36 0 60.5 -22t48.5 -74l125 -297h-52l-206 207q-30 30 -43 52t-13 54z" />
<glyph unicode="&#xe1;" horiz-adv-x="1024" d="M74 221q0 43 14 78.5t42.5 63t59.5 48.5t78.5 39t85 29.5t92.5 26.5l191 49v111q0 223 -205 223q-88 0 -151 -37l16 -33q27 -52 27 -94q0 -51 -30 -81t-83 -30q-47 0 -76 30t-29 81q0 46 35 88t82 70l41 24q133 76 250 76q166 0 250 -70t84 -225v-403q0 -138 16 -185 q58 -24 142 -24v-45q-44 -27 -100 -41.5t-101 -14.5q-72 0 -113.5 39.5t-52.5 110.5h-2q-45 -67 -120 -108.5t-173 -41.5q-129 0 -199.5 64.5t-70.5 181.5zM274 248q0 -76 43 -114t119 -38q64 0 118.5 27t82.5 65v299l-145 -41q-38 -13 -61.5 -22t-56.5 -27t-52.5 -37 t-33.5 -48t-14 -64zM371 1092l125 297q24 52 48 74t60 22q34 0 57 -24t23 -56q0 -34 -13 -56.5t-44 -50.5l-205 -206h-51z" />
<glyph unicode="&#xe2;" horiz-adv-x="1024" d="M74 221q0 43 14 78.5t42.5 63t59.5 48.5t78.5 39t85 29.5t92.5 26.5l191 49v111q0 223 -205 223q-88 0 -151 -37l16 -33q27 -52 27 -94q0 -51 -30 -81t-83 -30q-47 0 -76 30t-29 81q0 46 35 88t82 70l41 24q133 76 250 76q166 0 250 -70t84 -225v-403q0 -138 16 -185 q58 -24 142 -24v-45q-44 -27 -100 -41.5t-101 -14.5q-72 0 -113.5 39.5t-52.5 110.5h-2q-45 -67 -120 -108.5t-173 -41.5q-129 0 -199.5 64.5t-70.5 181.5zM209 1098l254 360h67l252 -360h-69l-213 196h-8l-216 -196h-67zM274 248q0 -76 43 -114t119 -38q64 0 118.5 27 t82.5 65v299l-145 -41q-38 -13 -61.5 -22t-56.5 -27t-52.5 -37t-33.5 -48t-14 -64z" />
<glyph unicode="&#xe3;" horiz-adv-x="1024" d="M74 221q0 43 14 78.5t42.5 63t59.5 48.5t78.5 39t85 29.5t92.5 26.5l191 49v111q0 223 -205 223q-88 0 -151 -37l16 -33q27 -52 27 -94q0 -51 -30 -81t-83 -30q-47 0 -76 30t-29 81q0 46 35 88t82 70l41 24q133 76 250 76q166 0 250 -70t84 -225v-403q0 -138 16 -185 q58 -24 142 -24v-45q-44 -27 -100 -41.5t-101 -14.5q-72 0 -113.5 39.5t-52.5 110.5h-2q-45 -67 -120 -108.5t-173 -41.5q-129 0 -199.5 64.5t-70.5 181.5zM201 1094q0 33 5 63t18.5 60.5t33.5 53t52 36.5t73 14q43 0 81.5 -16.5t62 -37t55 -37t63.5 -16.5q48 0 73 31t25 76 h52q0 -97 -47.5 -162t-135.5 -65q-44 0 -83 16.5t-62.5 36.5t-55 36.5t-61.5 16.5q-50 0 -74 -30t-24 -76h-51zM274 248q0 -76 43 -114t119 -38q64 0 118.5 27t82.5 65v299l-145 -41q-38 -13 -61.5 -22t-56.5 -27t-52.5 -37t-33.5 -48t-14 -64z" />
<glyph unicode="&#xe4;" horiz-adv-x="1024" d="M74 221q0 43 14 78.5t42.5 63t59.5 48.5t78.5 39t85 29.5t92.5 26.5l191 49v111q0 223 -205 223q-88 0 -151 -37l16 -33q27 -52 27 -94q0 -51 -30 -81t-83 -30q-47 0 -76 30t-29 81q0 46 35 88t82 70l41 24q133 76 250 76q166 0 250 -70t84 -225v-403q0 -138 16 -185 q58 -24 142 -24v-45q-44 -27 -100 -41.5t-101 -14.5q-72 0 -113.5 39.5t-52.5 110.5h-2q-45 -67 -120 -108.5t-173 -41.5q-129 0 -199.5 64.5t-70.5 181.5zM186 1208q0 47 33 79t80 32t79 -32t32 -79t-32 -79.5t-79 -32.5t-80 32.5t-33 79.5zM274 248q0 -76 43 -114t119 -38 q64 0 118.5 27t82.5 65v299l-145 -41q-38 -13 -61.5 -22t-56.5 -27t-52.5 -37t-33.5 -48t-14 -64zM586 1208q0 47 32.5 79t79.5 32t80 -32t33 -79t-33 -79.5t-80 -32.5t-79.5 32.5t-32.5 79.5z" />
<glyph unicode="&#xe5;" horiz-adv-x="1024" d="M74 221q0 43 14 78.5t42.5 63t59.5 48.5t78.5 39t85 29.5t92.5 26.5l191 49v111q0 223 -205 223q-88 0 -151 -37l16 -33q27 -52 27 -94q0 -51 -30 -81t-83 -30q-47 0 -76 30t-29 81q0 46 35 88t82 70l41 24q133 76 250 76q166 0 250 -70t84 -225v-403q0 -138 16 -185 q58 -24 142 -24v-45q-44 -27 -100 -41.5t-101 -14.5q-72 0 -113.5 39.5t-52.5 110.5h-2q-45 -67 -120 -108.5t-173 -41.5q-129 0 -199.5 64.5t-70.5 181.5zM274 248q0 -76 43 -114t119 -38q64 0 118.5 27t82.5 65v299l-145 -41q-38 -13 -61.5 -22t-56.5 -27t-52.5 -37 t-33.5 -48t-14 -64zM299 1278q0 81 56.5 130.5t142.5 49.5t142 -49.5t56 -130.5t-56 -130.5t-142 -49.5t-142.5 49.5t-56.5 130.5zM387 1278q0 -52 30.5 -86.5t80.5 -34.5q53 0 82.5 33t29.5 88q0 57 -29 89t-83 32q-51 0 -81 -33.5t-30 -87.5z" />
<glyph unicode="&#xe6;" horiz-adv-x="1542" d="M74 221q0 43 14 78.5t42.5 63t59.5 48.5t78.5 39t85 29.5t92.5 26.5l172 43v117q0 117 -44 170t-142 53q-88 0 -151 -37l16 -33q27 -52 27 -94q0 -51 -30 -81t-83 -30q-47 0 -76 30t-29 81q0 46 35 88t82 70l41 24q133 76 250 76q197 0 268 -109q128 109 303 109 q167 0 267 -86.5t100 -239.5q0 -56 -16 -110l-609 16v-61q4 -185 91.5 -284t242.5 -99q78 0 144.5 34t113.5 91l25 -19q-124 -250 -393 -250q-218 0 -338 168q-60 -73 -154.5 -120.5t-214.5 -47.5q-129 0 -199.5 64.5t-70.5 181.5zM274 248q0 -76 43 -114t119 -38 q144 0 248 94q-66 123 -66 289v2l-126 -35q-38 -13 -61.5 -22t-56.5 -27t-52.5 -37t-33.5 -48t-14 -64zM836 623l399 18q10 20 10 64q0 102 -44 152t-124 50q-104 0 -166 -80t-75 -204z" />
<glyph unicode="&#xe7;" horiz-adv-x="958" d="M74 483q0 225 139 362.5t348 137.5q129 0 224.5 -68.5t95.5 -179.5q0 -58 -35 -92.5t-84 -34.5t-82 32.5t-33 86.5q0 65 58 123q-41 57 -146 57q-121 0 -193.5 -106t-72.5 -273q0 -196 89 -302.5t236 -106.5q144 0 238 121l23 -25q-48 -108 -140.5 -174t-230.5 -66 q-195 0 -314.5 136.5t-119.5 371.5zM274 -473l37 63q15 -27 49 -48t74 -21q48 0 76.5 27.5t28.5 74.5q0 33 -16 57.5t-35.5 39t-35.5 42t-16 64.5q0 39 26 68t64 40l23 -8q-37 -37 -37 -69q0 -27 24.5 -51t53.5 -41t53.5 -49.5t24.5 -73.5q0 -83 -58 -120.5t-176 -37.5 q-42 0 -87.5 12.5t-72.5 30.5z" />
<glyph unicode="&#xe8;" horiz-adv-x="999" d="M74 479q0 223 128 363.5t341 140.5q167 0 266.5 -86.5t99.5 -239.5q0 -56 -16 -110l-608 16v-41q0 -194 87.5 -298.5t243.5 -104.5q159 0 261 125l24 -19q-124 -250 -393 -250q-198 0 -316 139t-118 365zM293 623l399 18q10 20 10 64q0 102 -43.5 152t-123.5 50 q-104 0 -166.5 -80t-75.5 -204zM336 1411q0 32 22 56t56 24q37 0 60.5 -21.5t47.5 -74.5l125 -297h-49l-207 207q-31 28 -43 50t-12 56z" />
<glyph unicode="&#xe9;" horiz-adv-x="999" d="M74 479q0 223 128 363.5t341 140.5q167 0 266.5 -86.5t99.5 -239.5q0 -56 -16 -110l-608 16v-41q0 -194 87.5 -298.5t243.5 -104.5q159 0 261 125l24 -19q-124 -250 -393 -250q-198 0 -316 139t-118 365zM293 623l399 18q10 20 10 64q0 102 -43.5 152t-123.5 50 q-104 0 -166.5 -80t-75.5 -204zM395 1092l125 297q24 52 48.5 74t60.5 22q34 0 57 -24t23 -56q0 -33 -13 -55t-43 -52l-207 -206h-51z" />
<glyph unicode="&#xea;" horiz-adv-x="999" d="M74 479q0 223 128 363.5t341 140.5q167 0 266.5 -86.5t99.5 -239.5q0 -56 -16 -110l-608 16v-41q0 -194 87.5 -298.5t243.5 -104.5q159 0 261 125l24 -19q-124 -250 -393 -250q-198 0 -316 139t-118 365zM233 1098l254 360h68l252 -360h-70l-213 196h-8l-213 -196h-70z M293 623l399 18q10 20 10 64q0 102 -43.5 152t-123.5 50q-104 0 -166.5 -80t-75.5 -204z" />
<glyph unicode="&#xeb;" horiz-adv-x="999" d="M74 479q0 223 128 363.5t341 140.5q167 0 266.5 -86.5t99.5 -239.5q0 -56 -16 -110l-608 16v-41q0 -194 87.5 -298.5t243.5 -104.5q159 0 261 125l24 -19q-124 -250 -393 -250q-198 0 -316 139t-118 365zM211 1208q0 47 33 79t80 32t78.5 -32t31.5 -79t-31.5 -79.5 t-78.5 -32.5t-80 32.5t-33 79.5zM293 623l399 18q10 20 10 64q0 102 -43.5 152t-123.5 50q-104 0 -166.5 -80t-75.5 -204zM612 1208q0 47 32 79t79 32t80 -32t33 -79t-33 -79.5t-80 -32.5t-79 32.5t-32 79.5z" />
<glyph unicode="&#xec;" horiz-adv-x="622" d="M82 0v53l70 17q37 8 49 17.5t12 33.5v649q0 35 -15.5 53.5t-68.5 36.5l-39 17v53l277 53h59v-862q0 -24 12 -33.5t49 -17.5l76 -17v-53h-481zM104 1411q0 32 23 56t57 24q36 0 60.5 -22t48.5 -74l125 -297h-51l-207 207q-30 30 -43 52t-13 54z" />
<glyph unicode="&#xed;" horiz-adv-x="622" d="M82 0v53l70 17q37 8 49 17.5t12 33.5v649q0 35 -15.5 53.5t-68.5 36.5l-39 17v53l277 53h59v-862q0 -24 12 -33.5t49 -17.5l76 -17v-53h-481zM203 1092l127 297q20 51 44.5 73.5t61.5 22.5q34 0 57 -24t23 -56q0 -33 -12.5 -55t-42.5 -52l-207 -206h-51z" />
<glyph unicode="&#xee;" horiz-adv-x="622" d="M23 1098l253 360h68l252 -360h-70l-213 196h-8l-215 -196h-67zM82 0v53l70 17q37 8 49 17.5t12 33.5v649q0 35 -15.5 53.5t-68.5 36.5l-39 17v53l277 53h59v-862q0 -24 12 -33.5t49 -17.5l76 -17v-53h-481z" />
<glyph unicode="&#xef;" horiz-adv-x="622" d="M0 1208q0 47 33 79t80 32t78.5 -32t31.5 -79t-31.5 -79.5t-78.5 -32.5t-80 32.5t-33 79.5zM82 0v53l70 17q37 8 49 17.5t12 33.5v649q0 35 -15.5 53.5t-68.5 36.5l-39 17v53l277 53h59v-862q0 -24 12 -33.5t49 -17.5l76 -17v-53h-481zM401 1208q0 47 32 79t79 32t80 -32 t33 -79t-33 -79.5t-80 -32.5t-79 32.5t-32 79.5z" />
<glyph unicode="&#xf0;" horiz-adv-x="1130" d="M74 434q0 212 120 348.5t330 132.5q193 -2 293 -137q-20 262 -143 400l-260 -166v86l207 131q-142 119 -424 143v86q342 -10 548 -149l238 153v-86l-176 -112q250 -213 250 -623q0 -200 -53.5 -347.5t-167.5 -233t-279 -85.5q-120 0 -213.5 34.5t-151.5 97t-88 145 t-30 182.5zM309 401q0 -153 68 -254.5t182 -101.5q53 0 94.5 22t68.5 55t46.5 88t29.5 103.5t15.5 121t6.5 121.5t1 122v16q-58 53 -111 82t-118 29q-133 0 -208 -116.5t-75 -287.5z" />
<glyph unicode="&#xf1;" horiz-adv-x="1245" d="M76 0v53l69 17q37 8 49.5 17.5t12.5 33.5v649q0 33 -15.5 50t-68.5 40l-41 17v53l278 53h60v-203q101 203 319 203q157 0 237.5 -88.5t80.5 -245.5v-528q0 -24 12 -33.5t49 -17.5l76 -17v-53h-481v53l69 17q37 8 49.5 17.5t12.5 33.5v475q0 55 -8 97.5t-28 82t-60.5 61 t-100.5 21.5q-80 0 -139.5 -42.5t-87.5 -102.5v-592q0 -24 12 -33.5t49 -17.5l76 -17v-53h-481zM326 1094q0 33 5 63t18.5 60.5t33.5 53t52 36.5t73 14q43 0 81.5 -16.5t62 -37t55 -37t63.5 -16.5q48 0 73 31t25 76h52q0 -97 -47.5 -162t-135.5 -65q-44 0 -83 16.5 t-62.5 36.5t-55 36.5t-61.5 16.5q-50 0 -74 -30t-24 -76h-51z" />
<glyph unicode="&#xf2;" horiz-adv-x="1130" d="M74 483q0 217 137 358.5t354 141.5q220 0 356 -137t136 -363q0 -219 -138 -363.5t-354 -144.5q-220 0 -355.5 139t-135.5 369zM309 483q0 -120 28.5 -218t88 -159t139.5 -61q118 0 187 109.5t69 328.5q0 119 -28.5 215t-88 155.5t-139.5 59.5q-117 0 -186.5 -110 t-69.5 -320zM377 1411q0 32 23 56t57 24q36 0 60 -22t48 -74l125 -297h-51l-207 207q-30 30 -42.5 51.5t-12.5 54.5z" />
<glyph unicode="&#xf3;" horiz-adv-x="1130" d="M74 483q0 217 137 358.5t354 141.5q220 0 356 -137t136 -363q0 -219 -138 -363.5t-354 -144.5q-220 0 -355.5 139t-135.5 369zM309 483q0 -120 28.5 -218t88 -159t139.5 -61q118 0 187 109.5t69 328.5q0 119 -28.5 215t-88 155.5t-139.5 59.5q-117 0 -186.5 -110 t-69.5 -320zM436 1092l127 297q24 52 48 74t61 22q34 0 56 -24t22 -56q0 -33 -13 -55t-43 -52l-207 -206h-51z" />
<glyph unicode="&#xf4;" horiz-adv-x="1130" d="M74 483q0 217 137 358.5t354 141.5q220 0 356 -137t136 -363q0 -219 -138 -363.5t-354 -144.5q-220 0 -355.5 139t-135.5 369zM274 1098l254 360h70l252 -360h-70l-213 196h-8l-215 -196h-70zM309 483q0 -120 28.5 -218t88 -159t139.5 -61q118 0 187 109.5t69 328.5 q0 119 -28.5 215t-88 155.5t-139.5 59.5q-117 0 -186.5 -110t-69.5 -320z" />
<glyph unicode="&#xf5;" horiz-adv-x="1130" d="M74 483q0 217 137 358.5t354 141.5q220 0 356 -137t136 -363q0 -219 -138 -363.5t-354 -144.5q-220 0 -355.5 139t-135.5 369zM268 1094q0 41 9 79t29 72.5t57.5 55t87.5 20.5q43 0 81.5 -16.5t62 -37t55 -37t63.5 -16.5q48 0 73 31t25 76h51q0 -97 -47 -162t-135 -65 q-44 0 -83 16.5t-62.5 36.5t-55 36.5t-61.5 16.5q-51 0 -75 -30t-24 -76h-51zM309 483q0 -120 28.5 -218t88 -159t139.5 -61q118 0 187 109.5t69 328.5q0 119 -28.5 215t-88 155.5t-139.5 59.5q-117 0 -186.5 -110t-69.5 -320z" />
<glyph unicode="&#xf6;" horiz-adv-x="1130" d="M74 483q0 217 137 358.5t354 141.5q220 0 356 -137t136 -363q0 -219 -138 -363.5t-354 -144.5q-220 0 -355.5 139t-135.5 369zM254 1208q0 47 32 79t79 32t79.5 -32t32.5 -79t-32.5 -79.5t-79.5 -32.5t-79 32.5t-32 79.5zM309 483q0 -120 28.5 -218t88 -159t139.5 -61 q118 0 187 109.5t69 328.5q0 119 -28.5 215t-88 155.5t-139.5 59.5q-117 0 -186.5 -110t-69.5 -320zM653 1208q0 47 33 79t80 32t79 -32t32 -79t-32 -79.5t-79 -32.5t-80 32.5t-33 79.5z" />
<glyph unicode="&#xf7;" d="M74 598v107h934v-107h-934zM418 293q0 51 36 85t87 34t87 -35.5t36 -83.5q0 -53 -35.5 -87t-87.5 -34q-51 0 -87 35.5t-36 85.5zM418 1008q0 51 36 85.5t87 34.5q50 0 86.5 -36t36.5 -84q0 -51 -36 -86t-87 -35q-50 0 -86.5 36.5t-36.5 84.5z" />
<glyph unicode="&#xf8;" horiz-adv-x="1130" d="M74 483q0 217 137 358.5t354 141.5q145 0 256 -63l80 120h82l-104 -157q178 -139 178 -400q0 -219 -138 -363.5t-354 -144.5q-138 0 -256 62l-80 -119h-82l105 158q-178 136 -178 407zM309 483q0 -150 43 -260l391 582q-68 108 -178 108q-117 0 -186.5 -110t-69.5 -320z M387 154q69 -109 178 -109q118 0 187 109.5t69 328.5q0 145 -43 252z" />
<glyph unicode="&#xf9;" horiz-adv-x="1204" d="M51 877v51l301 37h54q-17 -111 -17 -263v-323q0 -63 7.5 -109t27 -85t56.5 -59t91 -20q82 0 141 38.5t91 99.5v518q0 39 -10.5 50t-55.5 30l-82 28v52l312 43h65q-16 -123 -16 -295v-518q0 -22 12.5 -34.5t42.5 -23.5l66 -24v-45l-334 -50v207q-29 -79 -114.5 -143 t-203.5 -64q-153 0 -231 89t-78 255v474q0 26 -9 37t-48 24zM406 1411q0 32 21.5 56t55.5 24q37 0 61 -22t48 -74l127 -297h-51l-207 207q-30 30 -42.5 51.5t-12.5 54.5z" />
<glyph unicode="&#xfa;" horiz-adv-x="1204" d="M51 877v51l301 37h54q-17 -111 -17 -263v-323q0 -63 7.5 -109t27 -85t56.5 -59t91 -20q82 0 141 38.5t91 99.5v518q0 39 -10.5 50t-55.5 30l-82 28v52l312 43h65q-16 -123 -16 -295v-518q0 -22 12.5 -34.5t42.5 -23.5l66 -24v-45l-334 -50v207q-29 -79 -114.5 -143 t-203.5 -64q-153 0 -231 89t-78 255v474q0 26 -9 37t-48 24zM465 1092l125 297q24 52 48 74t60 22q34 0 57 -24t23 -56q0 -33 -12.5 -55t-42.5 -52l-207 -206h-51z" />
<glyph unicode="&#xfb;" horiz-adv-x="1204" d="M51 877v51l301 37h54q-17 -111 -17 -263v-323q0 -63 7.5 -109t27 -85t56.5 -59t91 -20q82 0 141 38.5t91 99.5v518q0 39 -10.5 50t-55.5 30l-82 28v52l312 43h65q-16 -123 -16 -295v-518q0 -22 12.5 -34.5t42.5 -23.5l66 -24v-45l-334 -50v207q-29 -79 -114.5 -143 t-203.5 -64q-153 0 -231 89t-78 255v474q0 26 -9 37t-48 24zM303 1098l254 360h68l252 -360h-68l-213 196h-8l-215 -196h-70z" />
<glyph unicode="&#xfc;" horiz-adv-x="1204" d="M51 877v51l301 37h54q-17 -111 -17 -263v-323q0 -63 7.5 -109t27 -85t56.5 -59t91 -20q82 0 141 38.5t91 99.5v518q0 39 -10.5 50t-55.5 30l-82 28v52l312 43h65q-16 -123 -16 -295v-518q0 -22 12.5 -34.5t42.5 -23.5l66 -24v-45l-334 -50v207q-29 -79 -114.5 -143 t-203.5 -64q-153 0 -231 89t-78 255v474q0 26 -9 37t-48 24zM281 1208q0 47 32.5 79t79.5 32t80 -32t33 -79t-33 -79.5t-80 -32.5t-79.5 32.5t-32.5 79.5zM682 1208q0 47 33 79t80 32t78.5 -32t31.5 -79t-31.5 -79.5t-78.5 -32.5t-80 32.5t-33 79.5z" />
<glyph unicode="&#xfd;" horiz-adv-x="909" d="M-74 -360q0 53 34.5 85.5t86.5 32.5q50 0 80.5 -27.5t30.5 -74.5q0 -42 -23 -68q51 0 92.5 52.5t89.5 162.5l76 174l-346 836q-18 50 -51 61l-23 9v51h410v-51l-66 -19q-51 -12 -36 -57l225 -569l209 548q13 32 5 49.5t-50 28.5l-66 19v51h324v-49l-23 -11 q-24 -9 -37.5 -20.5t-23.5 -38.5l-424 -993q-18 -45 -30.5 -73t-32 -67t-36.5 -63t-41.5 -51t-50.5 -41.5t-59.5 -24.5t-71.5 -10q-73 0 -122.5 39.5t-49.5 108.5zM352 1092l127 297q24 52 48 74t61 22q34 0 56 -24t22 -56q0 -34 -12.5 -56.5t-43.5 -50.5l-207 -206h-51z " />
<glyph unicode="&#xfe;" horiz-adv-x="1179" d="M53 1350v45l291 55h72q-17 -169 -17 -301v-334q46 72 128.5 120t181.5 48q192 0 291.5 -127.5t99.5 -351.5q0 -229 -129 -379t-334 -150q-71 0 -136.5 24.5t-101.5 63.5v-432q0 -23 13.5 -31t60.5 -20l98 -18v-54h-516v54l70 16q37 8 50 17.5t13 33.5v1608q0 36 -12.5 51 t-66.5 39zM399 117q61 -45 179 -45q136 0 216 111t80 302q0 185 -72.5 275t-199.5 90q-60 0 -115 -26t-88 -64v-643z" />
<glyph unicode="&#xff;" horiz-adv-x="917" d="M-70 -360q0 53 34 85.5t85 32.5t82 -27.5t31 -74.5q0 -42 -23 -68q51 0 93.5 52.5t89.5 162.5l75 174l-346 836q-20 51 -51 61l-23 9v51h410v-51l-65 -19q-52 -12 -37 -57l225 -569l209 548q14 31 5.5 49t-52.5 29l-66 19v51h326v-49l-23 -11q-25 -8 -38.5 -19.5 t-24.5 -39.5l-422 -993q-21 -52 -36 -85.5t-38 -76.5t-46.5 -69.5t-53.5 -51t-67 -36t-81 -11.5q-75 0 -123.5 39t-48.5 109zM172 1208q0 47 33 79t80 32t79.5 -32t32.5 -79t-32.5 -79.5t-79.5 -32.5t-80 32.5t-33 79.5zM573 1208q0 47 33 79t80 32t79 -32t32 -79t-32 -79.5 t-79 -32.5t-80 32.5t-33 79.5z" />
<glyph unicode="&#x152;" horiz-adv-x="2129" d="M70 647q0 191 86 340.5t240 232.5t349 83q240 0 418 -164v131h643q98 0 164 16l39 -401h-59q-48 170 -103 252q-79 57 -272 57h-23q-77 0 -159 -16v-465h211q42 24 76 81t42 109h43v-481h-43q-14 59 -45.5 114.5t-72.5 84.5h-211v-529q114 -16 182 -16h43q159 0 237 55 q31 34 70 118t57 152h60l-55 -401h-826v141q-180 -166 -416 -166q-195 0 -349 84.5t-240 238t-86 349.5zM342 647q0 -97 13.5 -183t44 -162.5t76 -131.5t114.5 -87t155 -32q102 0 181 50t127 135t72 189.5t24 221.5q0 115 -23.5 216t-70.5 184t-126.5 131.5t-183.5 48.5 q-86 0 -155 -31.5t-114.5 -85.5t-76 -129t-44 -158t-13.5 -176z" />
<glyph unicode="&#x153;" horiz-adv-x="1761" d="M74 483q0 217 137 358.5t354 141.5q244 0 373 -172q63 81 157 126.5t210 45.5q167 0 266.5 -86.5t99.5 -239.5q0 -56 -16 -110l-606 16q-2 -14 -2 -41q0 -194 87.5 -298.5t243.5 -104.5q158 0 260 125l25 -19q-124 -250 -393 -250q-220 0 -340 168q-63 -80 -156 -124 t-209 -44q-220 0 -355.5 139t-135.5 369zM309 483q0 -120 28.5 -218t88 -159t139.5 -61q118 0 187 109.5t69 328.5q0 119 -28.5 215t-88 155.5t-139.5 59.5q-117 0 -186.5 -110t-69.5 -320zM1055 623l399 18q10 20 10 64q0 102 -44 152t-124 50q-104 0 -166 -80t-75 -204z " />
<glyph unicode="&#x178;" horiz-adv-x="1236" d="M0 1206v64h514v-62l-82 -18q-37 -8 -46 -17.5t3 -33.5l313 -482l277 476q15 30 5 39.5t-54 17.5l-86 18v62h393v-62l-55 -16q-27 -7 -41 -18.5t-33 -38.5l-360 -578v-422q0 -26 8.5 -34t48.5 -15l129 -25v-61h-617v61l132 25q37 8 47 16t10 33v391l-393 609 q-25 36 -36 43t-28 12zM348 1528q0 47 32.5 78.5t80.5 31.5q47 0 79.5 -31.5t32.5 -78.5t-32.5 -80t-79.5 -33t-80 33t-33 80zM750 1528q0 47 31.5 78.5t78.5 31.5q48 0 80.5 -31.5t32.5 -78.5t-33 -80t-80 -33t-78.5 32.5t-31.5 80.5z" />
<glyph unicode="&#x2c6;" horiz-adv-x="1130" d="M274 1098l254 360h70l252 -360h-70l-213 196h-8l-215 -196h-70z" />
<glyph unicode="&#x2dc;" horiz-adv-x="1130" d="M268 1094q0 41 9 79t29 72.5t57.5 55t87.5 20.5q43 0 81.5 -16.5t62 -37t55 -37t63.5 -16.5q48 0 73 31t25 76h51q0 -97 -47 -162t-135 -65q-44 0 -83 16.5t-62.5 36.5t-55 36.5t-61.5 16.5q-51 0 -75 -30t-24 -76h-51z" />
<glyph unicode="&#x2000;" horiz-adv-x="924" />
<glyph unicode="&#x2001;" horiz-adv-x="1849" />
<glyph unicode="&#x2002;" horiz-adv-x="924" />
<glyph unicode="&#x2003;" horiz-adv-x="1849" />
<glyph unicode="&#x2004;" horiz-adv-x="616" />
<glyph unicode="&#x2005;" horiz-adv-x="462" />
<glyph unicode="&#x2006;" horiz-adv-x="308" />
<glyph unicode="&#x2007;" horiz-adv-x="308" />
<glyph unicode="&#x2008;" horiz-adv-x="231" />
<glyph unicode="&#x2009;" horiz-adv-x="369" />
<glyph unicode="&#x200a;" horiz-adv-x="102" />
<glyph unicode="&#x2010;" horiz-adv-x="581" d="M57 463v151h467v-151h-467z" />
<glyph unicode="&#x2011;" horiz-adv-x="581" d="M57 463v151h467v-151h-467z" />
<glyph unicode="&#x2012;" horiz-adv-x="581" d="M57 463v151h467v-151h-467z" />
<glyph unicode="&#x2013;" horiz-adv-x="999" d="M57 481v115h885v-115h-885z" />
<glyph unicode="&#x2014;" horiz-adv-x="1998" d="M57 481v115h1885v-115h-1885z" />
<glyph unicode="&#x2018;" horiz-adv-x="540" d="M139 946q0 68 18.5 127.5t53 107t55 69.5t53.5 53h99q-60 -53 -102 -123.5t-42 -139.5q127 -27 127 -133q0 -59 -33.5 -94t-88.5 -35q-61 0 -100.5 41t-39.5 127z" />
<glyph unicode="&#x2019;" horiz-adv-x="540" d="M123 778q60 52 101.5 122.5t41.5 139.5q-127 27 -127 134q0 59 34 94t89 35q61 0 100 -40.5t39 -127.5q0 -67 -19 -128t-50.5 -106t-57 -72.5t-53.5 -50.5h-98z" />
<glyph unicode="&#x201a;" horiz-adv-x="540" d="M123 -287q60 52 101.5 122.5t41.5 139.5q-127 27 -127 136q0 59 34 93t89 34q61 0 100 -40.5t39 -125.5q0 -67 -19 -128t-50 -106t-57 -73t-54 -52h-98z" />
<glyph unicode="&#x201c;" horiz-adv-x="909" d="M137 946q0 198 178 357h99q-60 -53 -102 -123.5t-42 -139.5q129 -27 129 -133q0 -59 -35 -94t-90 -35q-61 0 -99 40.5t-38 127.5zM512 946q0 68 18.5 127.5t53 107t55 69.5t53.5 53h96q-57 -48 -99 -121.5t-42 -141.5q127 -27 127 -133q0 -59 -34 -94t-89 -35 q-61 0 -100 40.5t-39 127.5z" />
<glyph unicode="&#x201d;" horiz-adv-x="909" d="M121 778q58 49 99.5 121.5t41.5 140.5q-59 13 -93 46t-34 88q0 59 34 94t89 35q61 0 100 -40.5t39 -127.5q0 -67 -19 -128t-50.5 -106t-57 -72.5t-53.5 -50.5h-96zM496 778q60 52 101.5 122.5t41.5 139.5q-129 27 -129 134q0 59 35 94t90 35q61 0 99 -40.5t38 -127.5 q0 -67 -19 -128t-50 -106t-56.5 -72.5t-52.5 -50.5h-98z" />
<glyph unicode="&#x201e;" horiz-adv-x="909" d="M121 -287q58 48 99.5 120t41.5 142q-127 27 -127 136q0 59 34 93t89 34q61 0 100 -40.5t39 -125.5q0 -67 -19 -128t-50 -106t-57 -73t-54 -52h-96zM496 -287q60 52 101.5 122.5t41.5 139.5q-129 27 -129 136q0 59 35 93t90 34q61 0 99 -40.5t38 -125.5 q0 -67 -18.5 -128.5t-49 -106t-57 -73.5t-53.5 -51h-98z" />
<glyph unicode="&#x2022;" horiz-adv-x="802" d="M164 539q0 100 68.5 168.5t168.5 68.5q99 0 168.5 -69t69.5 -168q0 -98 -70 -168t-168 -70q-99 0 -168 69.5t-69 168.5z" />
<glyph unicode="&#x2026;" horiz-adv-x="1671" d="M133 119q0 63 40 103t106 40q65 0 105 -40.5t40 -102.5q0 -64 -40 -104t-105 -40t-105.5 41t-40.5 103zM690 119q0 63 40 103t106 40q65 0 105 -40.5t40 -102.5q0 -64 -40 -104t-105 -40t-105.5 41t-40.5 103zM1247 119q0 63 40 103t106 40q65 0 105 -40.5t40 -102.5 q0 -64 -40 -104t-105 -40t-105.5 41t-40.5 103z" />
<glyph unicode="&#x202f;" horiz-adv-x="369" />
<glyph unicode="&#x2039;" horiz-adv-x="450" d="M41 524v66l348 319v-73l-186 -271v-8l186 -278v-74z" />
<glyph unicode="&#x203a;" horiz-adv-x="450" d="M61 205v74l187 278v8l-187 271v73l349 -319v-66z" />
<glyph unicode="&#x205f;" horiz-adv-x="462" />
<glyph unicode="&#x20ac;" d="M-41 459l41 86h135v69q0 67 8 119h-127l41 86h103q51 201 194.5 322t356.5 121q132 0 214.5 -58.5t114.5 -150.5l-59 -107q-64 238 -270 238q-123 0 -203 -92t-109 -273h469l-41 -86h-436q-4 -23 -4 -110v-78h383l-41 -86h-336q26 -406 281 -406q125 0 193 65.5t89 196.5 h76q-53 -340 -360 -340q-227 0 -361 122t-166 362h-186z" />
<glyph unicode="&#x2122;" horiz-adv-x="2179" d="M104 1049l9 237q46 -16 116 -16h514q22 0 58 5t49 11l8 -237h-41q-22 80 -63 139q-33 19 -63.5 25t-78.5 6h-57v-601q0 -12 5 -16t28 -8l86 -16v-43h-385v43l78 16q18 3 24.5 5.5t10.5 6.5t4 12v601h-46q-106 0 -157 -31q-41 -53 -64 -139h-35zM954 535v43l86 14 q26 3 29 31q8 33 8 116v443q0 5 -0.5 8.5t-2 6t-3 3.5t-5.5 2.5t-7 2t-10.5 1.5t-12.5 2l-69 11v51h254l272 -525l293 525h239v-45l-71 -17q-14 -3 -19.5 -5.5t-8.5 -6.5t-3 -12v-568q0 -12 5.5 -15.5t29.5 -8.5l67 -14v-43h-354v43l64 14q23 4 27.5 8t4.5 16v492l-315 -573 h-8l-305 571v-367q0 -83 8 -116q3 -24 24 -31l91 -14v-43h-308z" />
<glyph unicode="&#x25fc;" horiz-adv-x="931" d="M0 0v932h932v-932h-932z" />
</font>
</defs>
</svg>
