<?xml version="1.0" encoding="utf-8"?>
<!-- Generator: Adobe Illustrator 18.1.1, SVG Export Plug-In . SVG Version: 6.00 Build 0)  -->
<svg version="1.1" id="Calque_1" xmlns="http://www.w3.org/2000/svg" xmlns:xlink="http://www.w3.org/1999/xlink" x="0px" y="0px"
	 viewBox="66 211.3 725 175.4" enable-background="new 66 211.3 725 175.4" xml:space="preserve">
<g>
	<path fill="#FFFFFF" d="M71.3,218.9H101v161.9H71.3C71.3,380.9,71.3,218.9,71.3,218.9z"/>
	<path fill="#FFFFFF" d="M146.2,268.1h26.9v22.9h0.4c5.9-15.3,21.2-24.8,36.8-24.8h1.9v26.7H207c-20.1,0-32.4,8.5-32.4,30.3v57.8
		h-28.4L146.2,268.1L146.2,268.1z"/>
	<path fill="#FFFFFF" d="M243.7,268.1h26.9v22.9h0.4c5.9-15.3,21.2-24.8,36.8-24.8h1.9v26.7h-5.3c-20.1,0-32.4,8.5-32.4,30.3v57.8
		h-28.4L243.7,268.1L243.7,268.1z"/>
	<path fill="#FFFFFF" d="M336,300.7c0.9-21.6,18-35.2,46.6-35.2c33.4,0,46.4,13.8,46.4,43.8v41.5c0,7.2,2.1,10,9.5,10v20.5h-8
		c-16.8,0-23.9-4.2-26.9-17.1h-0.6c-6.6,11.6-18.4,18.2-34.7,18.2c-23.1,0-37.3-12.3-37.3-33c0-12.9,5.5-22.4,16.9-28.4
		c11.9-6.1,29-7.6,53.3-8.7v-5.7c0-15.3-5.9-22.3-18.9-22.3c-13.1,0-18.6,7.4-19,16.3L336,300.7L336,300.7z M401.4,332v-3.2
		c-19.9,1.1-30.5,2.8-36.4,7c-4,2.8-5.7,7-5.7,12.3c0,9.3,6.1,15.3,16.5,15.3C388.2,363.3,401.4,354,401.4,332z"/>
	<path fill="#FFFFFF" d="M573.5,380.9h-27.3v-17.4h-0.6c-5.7,10.4-16.8,20.1-34.3,20.1c-27.8,0-47.2-17.4-47.2-58
		c0-39.4,20.8-60.1,49.1-60.1c15.3,0,26.3,7.9,31.3,18.2h0.4v-69.7h28.6V380.9z M545.3,319.7c0-21.2-10.1-33.9-25.6-33.9
		c-17.1,0-26.7,13.5-26.7,38.9c0,23.7,7.2,38.9,25.6,38.9c16.9,0,26.7-13.4,26.7-31.1V319.7z"/>
	<path fill="#FFFFFF" d="M616.5,219.6h29v26.9h-29V219.6L616.5,219.6z M616.7,268.1h28.6v112.9h-28.6V268.1z"/>
	<path fill="#FFFFFF" d="M735,383.6c-35.5,0-54-23.7-54-59.1c0-34.3,19.7-59.3,53.8-59.3c37,0,52.1,25.4,52.1,56.9v9.1h-77.1
		c1.3,21.4,9.5,32.6,26.3,32.6c15.3,0,19.7-8,21.6-14.8h27.9C782,370.7,764,383.6,735,383.6z M757.9,312.3
		c-1.1-16.9-7.6-28.4-23.3-28.4c-14.6,0-22.6,11.2-24.5,29.7h47.8L757.9,312.3L757.9,312.3z M734,214.1h29.2l-18.6,36H723L734,214.1
		z"/>
</g>
</svg>
